<svg width="224" height="30" viewBox="0 0 224 30" fill="none" xmlns="http://www.w3.org/2000/svg">
<path d="M46.1001 8.84229L41.4595 22.9868H37.7212L44.061 5.92432H46.4399L46.1001 8.84229ZM49.9556 22.9868L45.3032 8.84229L44.9282 5.92432H47.3306L53.7056 22.9868H49.9556ZM49.7446 16.6353V19.3892H40.7329V16.6353H49.7446ZM58.0767 12.9321V22.9868H54.6899V10.3071H57.8657L58.0767 12.9321ZM57.6079 16.2017H56.6704C56.6704 15.3188 56.7759 14.5063 56.9868 13.7642C57.2056 13.0142 57.522 12.3657 57.936 11.8188C58.3579 11.2642 58.8774 10.8345 59.4946 10.5298C60.1118 10.2251 60.8267 10.0728 61.6392 10.0728C62.2017 10.0728 62.7173 10.1587 63.186 10.3306C63.6548 10.4946 64.0571 10.7563 64.3931 11.1157C64.7368 11.4673 65.0024 11.9282 65.1899 12.4985C65.3774 13.061 65.4712 13.7368 65.4712 14.5259V22.9868H62.0962V14.9009C62.0962 14.3228 62.0181 13.8774 61.8618 13.5649C61.7056 13.2524 61.4829 13.0337 61.1938 12.9087C60.9126 12.7837 60.5728 12.7212 60.1743 12.7212C59.7368 12.7212 59.354 12.811 59.0259 12.9907C58.7056 13.1704 58.4399 13.4204 58.229 13.7407C58.0181 14.0532 57.8618 14.4204 57.7603 14.8423C57.6587 15.2642 57.6079 15.7173 57.6079 16.2017ZM65.1548 15.8149L63.9478 15.9673C63.9478 15.1392 64.0493 14.3696 64.2524 13.6587C64.4634 12.9478 64.772 12.3228 65.1782 11.7837C65.5923 11.2446 66.104 10.8267 66.7134 10.5298C67.3228 10.2251 68.0259 10.0728 68.8228 10.0728C69.4321 10.0728 69.9868 10.1626 70.4868 10.3423C70.9868 10.5142 71.4126 10.7915 71.7642 11.1743C72.1235 11.5493 72.397 12.0415 72.5845 12.6509C72.7798 13.2603 72.8774 14.0063 72.8774 14.8892V22.9868H69.4907V14.8892C69.4907 14.3032 69.4126 13.8579 69.2563 13.5532C69.1079 13.2407 68.8892 13.0259 68.6001 12.9087C68.3188 12.7837 67.9829 12.7212 67.5923 12.7212C67.186 12.7212 66.8306 12.8032 66.5259 12.9673C66.2212 13.1235 65.9673 13.3423 65.7642 13.6235C65.561 13.9048 65.4087 14.2329 65.3071 14.6079C65.2056 14.9751 65.1548 15.3774 65.1548 15.8149ZM81.3267 23.2212C80.3423 23.2212 79.4595 23.0649 78.6782 22.7524C77.897 22.4321 77.2329 21.9907 76.686 21.4282C76.147 20.8657 75.7329 20.2134 75.4438 19.4712C75.1548 18.7212 75.0103 17.9243 75.0103 17.0806V16.6118C75.0103 15.6509 75.147 14.772 75.4204 13.9751C75.6938 13.1782 76.0845 12.4868 76.5923 11.9009C77.1079 11.3149 77.7329 10.8657 78.4673 10.5532C79.2017 10.2329 80.0298 10.0728 80.9517 10.0728C81.8501 10.0728 82.647 10.2212 83.3423 10.5181C84.0376 10.8149 84.6196 11.2368 85.0884 11.7837C85.5649 12.3306 85.9243 12.9868 86.1665 13.7524C86.4087 14.5103 86.5298 15.354 86.5298 16.2837V17.6899H76.4517V15.4399H83.2134V15.1821C83.2134 14.7134 83.1274 14.2954 82.9556 13.9282C82.7915 13.5532 82.5415 13.2563 82.2056 13.0376C81.8696 12.8188 81.4399 12.7095 80.9165 12.7095C80.4712 12.7095 80.0884 12.8071 79.7681 13.0024C79.4478 13.1978 79.186 13.4712 78.9829 13.8228C78.7876 14.1743 78.6392 14.5884 78.5376 15.0649C78.4438 15.5337 78.397 16.0493 78.397 16.6118V17.0806C78.397 17.5884 78.4673 18.0571 78.6079 18.4868C78.7563 18.9165 78.9634 19.2876 79.229 19.6001C79.5024 19.9126 79.8306 20.1548 80.2134 20.3267C80.604 20.4985 81.0454 20.5845 81.5376 20.5845C82.147 20.5845 82.7134 20.4673 83.2368 20.2329C83.7681 19.9907 84.2251 19.6274 84.6079 19.1431L86.2485 20.9243C85.9829 21.3071 85.6196 21.6743 85.1587 22.0259C84.7056 22.3774 84.1587 22.6665 83.5181 22.8931C82.8774 23.1118 82.147 23.2212 81.3267 23.2212ZM91.8267 13.0728V22.9868H88.4517V10.3071H91.6274L91.8267 13.0728ZM95.647 10.2251L95.5884 13.354C95.4243 13.3306 95.2251 13.311 94.9907 13.2954C94.7642 13.272 94.5571 13.2603 94.3696 13.2603C93.8931 13.2603 93.479 13.3228 93.1274 13.4478C92.7837 13.5649 92.4946 13.7407 92.2603 13.9751C92.0337 14.2095 91.8618 14.4946 91.7446 14.8306C91.6353 15.1665 91.5728 15.5493 91.5571 15.979L90.8774 15.7681C90.8774 14.9478 90.9595 14.1938 91.1235 13.5063C91.2876 12.811 91.5259 12.2056 91.8384 11.6899C92.1587 11.1743 92.5493 10.7759 93.0103 10.4946C93.4712 10.2134 93.9985 10.0728 94.5923 10.0728C94.7798 10.0728 94.9712 10.0884 95.1665 10.1196C95.3618 10.1431 95.522 10.1782 95.647 10.2251ZM100.803 10.3071V22.9868H97.4165V10.3071H100.803ZM97.2056 7.00244C97.2056 6.51025 97.3774 6.104 97.7212 5.78369C98.0649 5.46338 98.5259 5.30322 99.104 5.30322C99.6743 5.30322 100.131 5.46338 100.475 5.78369C100.827 6.104 101.002 6.51025 101.002 7.00244C101.002 7.49463 100.827 7.90088 100.475 8.22119C100.131 8.5415 99.6743 8.70166 99.104 8.70166C98.5259 8.70166 98.0649 8.5415 97.7212 8.22119C97.3774 7.90088 97.2056 7.49463 97.2056 7.00244ZM106.967 4.9751V22.9868H103.592V4.9751H106.967ZM114.959 10.3071L109.452 16.5884L106.499 19.5767L105.268 17.1392L107.612 14.1626L110.905 10.3071H114.959ZM111.456 22.9868L107.706 17.1274L110.038 15.0884L115.346 22.9868H111.456ZM123.256 20.1274V14.479C123.256 14.0728 123.19 13.7251 123.057 13.436C122.924 13.1392 122.717 12.9087 122.436 12.7446C122.163 12.5806 121.807 12.4985 121.37 12.4985C120.995 12.4985 120.67 12.5649 120.397 12.6978C120.124 12.8228 119.913 13.0063 119.764 13.2485C119.616 13.4829 119.542 13.7603 119.542 14.0806H116.167C116.167 13.5415 116.292 13.0298 116.542 12.5454C116.792 12.061 117.155 11.6353 117.631 11.2681C118.108 10.8931 118.674 10.6001 119.331 10.3892C119.995 10.1782 120.737 10.0728 121.557 10.0728C122.542 10.0728 123.417 10.2368 124.182 10.5649C124.948 10.8931 125.549 11.3853 125.987 12.0415C126.432 12.6978 126.655 13.5181 126.655 14.5024V19.9282C126.655 20.6235 126.698 21.1938 126.784 21.6392C126.87 22.0767 126.995 22.4595 127.159 22.7876V22.9868H123.749C123.584 22.6431 123.459 22.2134 123.374 21.6978C123.295 21.1743 123.256 20.6509 123.256 20.1274ZM123.702 15.2642L123.725 17.1743H121.838C121.393 17.1743 121.006 17.2251 120.678 17.3267C120.35 17.4282 120.081 17.5728 119.87 17.7603C119.659 17.9399 119.502 18.1509 119.401 18.3931C119.307 18.6353 119.26 18.9009 119.26 19.1899C119.26 19.479 119.327 19.7407 119.459 19.9751C119.592 20.2017 119.784 20.3813 120.034 20.5142C120.284 20.6392 120.577 20.7017 120.913 20.7017C121.42 20.7017 121.862 20.6001 122.237 20.397C122.612 20.1938 122.901 19.9438 123.104 19.647C123.315 19.3501 123.424 19.0688 123.432 18.8032L124.323 20.2329C124.198 20.5532 124.026 20.8853 123.807 21.229C123.596 21.5728 123.327 21.897 122.999 22.2017C122.67 22.4985 122.276 22.7446 121.815 22.9399C121.354 23.1274 120.807 23.2212 120.174 23.2212C119.37 23.2212 118.639 23.061 117.983 22.7407C117.334 22.4126 116.819 21.9634 116.436 21.3931C116.061 20.8149 115.874 20.1587 115.874 19.4243C115.874 18.7603 115.999 18.1704 116.249 17.6548C116.499 17.1392 116.866 16.7056 117.35 16.354C117.842 15.9946 118.456 15.7251 119.19 15.5454C119.924 15.3579 120.776 15.2642 121.745 15.2642H123.702ZM132.819 10.3071V22.9868H129.432V10.3071H132.819ZM129.221 7.00244C129.221 6.51025 129.393 6.104 129.737 5.78369C130.081 5.46338 130.542 5.30322 131.12 5.30322C131.69 5.30322 132.147 5.46338 132.491 5.78369C132.842 6.104 133.018 6.51025 133.018 7.00244C133.018 7.49463 132.842 7.90088 132.491 8.22119C132.147 8.5415 131.69 8.70166 131.12 8.70166C130.542 8.70166 130.081 8.5415 129.737 8.22119C129.393 7.90088 129.221 7.49463 129.221 7.00244ZM148.44 19.4829C148.44 19.2407 148.37 19.022 148.229 18.8267C148.088 18.6313 147.827 18.4517 147.444 18.2876C147.069 18.1157 146.526 17.9595 145.815 17.8188C145.174 17.6782 144.577 17.5024 144.022 17.2915C143.475 17.0728 142.999 16.811 142.592 16.5063C142.194 16.2017 141.881 15.8423 141.655 15.4282C141.428 15.0063 141.315 14.5259 141.315 13.9868C141.315 13.4556 141.428 12.9556 141.655 12.4868C141.889 12.0181 142.221 11.604 142.651 11.2446C143.088 10.8774 143.62 10.5923 144.245 10.3892C144.877 10.1782 145.588 10.0728 146.377 10.0728C147.479 10.0728 148.424 10.2485 149.213 10.6001C150.01 10.9517 150.62 11.436 151.042 12.0532C151.471 12.6626 151.686 13.3579 151.686 14.1392H148.311C148.311 13.811 148.241 13.5181 148.1 13.2603C147.967 12.9946 147.756 12.7876 147.467 12.6392C147.186 12.4829 146.819 12.4048 146.366 12.4048C145.991 12.4048 145.667 12.4712 145.393 12.604C145.12 12.729 144.909 12.9009 144.76 13.1196C144.62 13.3306 144.549 13.5649 144.549 13.8228C144.549 14.0181 144.588 14.1938 144.667 14.3501C144.752 14.4985 144.889 14.6353 145.077 14.7603C145.264 14.8853 145.506 15.0024 145.803 15.1118C146.108 15.2134 146.483 15.3071 146.928 15.3931C147.842 15.5806 148.659 15.8267 149.377 16.1313C150.096 16.4282 150.667 16.8345 151.088 17.3501C151.51 17.8579 151.721 18.5259 151.721 19.354C151.721 19.9165 151.596 20.4321 151.346 20.9009C151.096 21.3696 150.737 21.7798 150.268 22.1313C149.799 22.4751 149.237 22.7446 148.581 22.9399C147.932 23.1274 147.202 23.2212 146.389 23.2212C145.209 23.2212 144.209 23.0103 143.389 22.5884C142.577 22.1665 141.959 21.6313 141.538 20.9829C141.124 20.3267 140.917 19.6548 140.917 18.9673H144.116C144.131 19.4282 144.249 19.7993 144.467 20.0806C144.694 20.3618 144.979 20.5649 145.323 20.6899C145.674 20.8149 146.053 20.8774 146.459 20.8774C146.897 20.8774 147.26 20.8188 147.549 20.7017C147.838 20.5767 148.057 20.4126 148.206 20.2095C148.362 19.9985 148.44 19.7563 148.44 19.4829ZM157.288 12.7446V27.8618H153.913V10.3071H157.042L157.288 12.7446ZM165.315 16.5063V16.7524C165.315 17.6743 165.206 18.5298 164.987 19.3188C164.776 20.1079 164.463 20.7954 164.049 21.3813C163.635 21.9595 163.12 22.4126 162.502 22.7407C161.893 23.061 161.19 23.2212 160.393 23.2212C159.62 23.2212 158.948 23.0649 158.377 22.7524C157.807 22.4399 157.327 22.0024 156.936 21.4399C156.553 20.8696 156.245 20.2095 156.01 19.4595C155.776 18.7095 155.596 17.9048 155.471 17.0454V16.4009C155.596 15.479 155.776 14.6353 156.01 13.8696C156.245 13.0962 156.553 12.4282 156.936 11.8657C157.327 11.2954 157.803 10.854 158.366 10.5415C158.936 10.229 159.604 10.0728 160.37 10.0728C161.174 10.0728 161.881 10.2251 162.491 10.5298C163.108 10.8345 163.624 11.272 164.038 11.8423C164.459 12.4126 164.776 13.0923 164.987 13.8813C165.206 14.6704 165.315 15.5454 165.315 16.5063ZM161.928 16.7524V16.5063C161.928 15.9673 161.881 15.4712 161.788 15.0181C161.702 14.5571 161.561 14.1548 161.366 13.811C161.178 13.4673 160.928 13.2017 160.616 13.0142C160.311 12.8188 159.94 12.7212 159.502 12.7212C159.042 12.7212 158.647 12.7954 158.319 12.9438C157.999 13.0923 157.737 13.3071 157.534 13.5884C157.331 13.8696 157.178 14.2056 157.077 14.5962C156.975 14.9868 156.913 15.4282 156.889 15.9204V17.5493C156.928 18.1274 157.038 18.647 157.217 19.1079C157.397 19.561 157.674 19.9204 158.049 20.186C158.424 20.4517 158.917 20.5845 159.526 20.5845C159.971 20.5845 160.346 20.4868 160.651 20.2915C160.956 20.0884 161.202 19.811 161.389 19.4595C161.584 19.1079 161.721 18.7017 161.799 18.2407C161.885 17.7798 161.928 17.2837 161.928 16.7524ZM166.874 16.7759V16.5298C166.874 15.6001 167.006 14.7446 167.272 13.9634C167.538 13.1743 167.924 12.4907 168.432 11.9126C168.94 11.3345 169.565 10.8853 170.307 10.5649C171.049 10.2368 171.901 10.0728 172.862 10.0728C173.823 10.0728 174.678 10.2368 175.428 10.5649C176.178 10.8853 176.807 11.3345 177.315 11.9126C177.831 12.4907 178.221 13.1743 178.487 13.9634C178.752 14.7446 178.885 15.6001 178.885 16.5298V16.7759C178.885 17.6978 178.752 18.5532 178.487 19.3423C178.221 20.1235 177.831 20.8071 177.315 21.3931C176.807 21.9712 176.182 22.4204 175.44 22.7407C174.698 23.061 173.846 23.2212 172.885 23.2212C171.924 23.2212 171.069 23.061 170.319 22.7407C169.577 22.4204 168.948 21.9712 168.432 21.3931C167.924 20.8071 167.538 20.1235 167.272 19.3423C167.006 18.5532 166.874 17.6978 166.874 16.7759ZM170.249 16.5298V16.7759C170.249 17.3071 170.295 17.8032 170.389 18.2642C170.483 18.7251 170.631 19.1313 170.834 19.4829C171.045 19.8267 171.319 20.0962 171.655 20.2915C171.991 20.4868 172.401 20.5845 172.885 20.5845C173.354 20.5845 173.756 20.4868 174.092 20.2915C174.428 20.0962 174.698 19.8267 174.901 19.4829C175.104 19.1313 175.252 18.7251 175.346 18.2642C175.448 17.8032 175.499 17.3071 175.499 16.7759V16.5298C175.499 16.0142 175.448 15.5298 175.346 15.0767C175.252 14.6157 175.1 14.2095 174.889 13.8579C174.686 13.4985 174.417 13.2173 174.081 13.0142C173.745 12.811 173.338 12.7095 172.862 12.7095C172.385 12.7095 171.979 12.811 171.643 13.0142C171.315 13.2173 171.045 13.4985 170.834 13.8579C170.631 14.2095 170.483 14.6157 170.389 15.0767C170.295 15.5298 170.249 16.0142 170.249 16.5298ZM184.334 13.0728V22.9868H180.959V10.3071H184.135L184.334 13.0728ZM188.155 10.2251L188.096 13.354C187.932 13.3306 187.733 13.311 187.499 13.2954C187.272 13.272 187.065 13.2603 186.877 13.2603C186.401 13.2603 185.987 13.3228 185.635 13.4478C185.292 13.5649 185.002 13.7407 184.768 13.9751C184.542 14.2095 184.37 14.4946 184.252 14.8306C184.143 15.1665 184.081 15.5493 184.065 15.979L183.385 15.7681C183.385 14.9478 183.467 14.1938 183.631 13.5063C183.795 12.811 184.034 12.2056 184.346 11.6899C184.667 11.1743 185.057 10.7759 185.518 10.4946C185.979 10.2134 186.506 10.0728 187.1 10.0728C187.288 10.0728 187.479 10.0884 187.674 10.1196C187.87 10.1431 188.03 10.1782 188.155 10.2251ZM196.545 10.3071V12.6978H189.163V10.3071H196.545ZM190.991 7.17822H194.366V19.1665C194.366 19.5337 194.413 19.8149 194.506 20.0103C194.608 20.2056 194.756 20.3423 194.952 20.4204C195.147 20.4907 195.393 20.5259 195.69 20.5259C195.901 20.5259 196.088 20.5181 196.252 20.5024C196.424 20.479 196.569 20.4556 196.686 20.4321L196.698 22.9165C196.409 23.0103 196.096 23.0845 195.76 23.1392C195.424 23.1938 195.053 23.2212 194.647 23.2212C193.905 23.2212 193.256 23.1001 192.702 22.8579C192.155 22.6079 191.733 22.2095 191.436 21.6626C191.139 21.1157 190.991 20.397 190.991 19.5063V7.17822ZM197.624 16.7759V16.5298C197.624 15.6001 197.756 14.7446 198.022 13.9634C198.288 13.1743 198.674 12.4907 199.182 11.9126C199.69 11.3345 200.315 10.8853 201.057 10.5649C201.799 10.2368 202.651 10.0728 203.612 10.0728C204.573 10.0728 205.428 10.2368 206.178 10.5649C206.928 10.8853 207.557 11.3345 208.065 11.9126C208.581 12.4907 208.971 13.1743 209.237 13.9634C209.502 14.7446 209.635 15.6001 209.635 16.5298V16.7759C209.635 17.6978 209.502 18.5532 209.237 19.3423C208.971 20.1235 208.581 20.8071 208.065 21.3931C207.557 21.9712 206.932 22.4204 206.19 22.7407C205.448 23.061 204.596 23.2212 203.635 23.2212C202.674 23.2212 201.819 23.061 201.069 22.7407C200.327 22.4204 199.698 21.9712 199.182 21.3931C198.674 20.8071 198.288 20.1235 198.022 19.3423C197.756 18.5532 197.624 17.6978 197.624 16.7759ZM200.999 16.5298V16.7759C200.999 17.3071 201.045 17.8032 201.139 18.2642C201.233 18.7251 201.381 19.1313 201.584 19.4829C201.795 19.8267 202.069 20.0962 202.405 20.2915C202.741 20.4868 203.151 20.5845 203.635 20.5845C204.104 20.5845 204.506 20.4868 204.842 20.2915C205.178 20.0962 205.448 19.8267 205.651 19.4829C205.854 19.1313 206.002 18.7251 206.096 18.2642C206.198 17.8032 206.249 17.3071 206.249 16.7759V16.5298C206.249 16.0142 206.198 15.5298 206.096 15.0767C206.002 14.6157 205.85 14.2095 205.639 13.8579C205.436 13.4985 205.167 13.2173 204.831 13.0142C204.495 12.811 204.088 12.7095 203.612 12.7095C203.135 12.7095 202.729 12.811 202.393 13.0142C202.065 13.2173 201.795 13.4985 201.584 13.8579C201.381 14.2095 201.233 14.6157 201.139 15.0767C201.045 15.5298 200.999 16.0142 200.999 16.5298ZM215.084 4.9751V22.9868H211.709V4.9751H215.084ZM223.077 10.3071L217.569 16.5884L214.616 19.5767L213.385 17.1392L215.729 14.1626L219.022 10.3071H223.077ZM219.573 22.9868L215.823 17.1274L218.155 15.0884L223.463 22.9868H219.573Z" fill="white"/>
<path fill-rule="evenodd" clip-rule="evenodd" d="M22.324 10.8955C20.9135 10.8955 19.7136 9.99407 19.2689 8.73586H14.7652V14.135H19.2689C19.7136 12.8768 20.9135 11.9754 22.324 11.9754C24.1132 11.9754 25.5636 13.4257 25.5636 15.2149C25.5636 17.004 24.1132 18.4544 22.324 18.4544C20.9135 18.4544 19.7136 17.5529 19.2689 16.2947H14.7652V21.6939H19.2689C19.7136 20.4357 20.9135 19.5342 22.324 19.5342C24.1132 19.5342 25.5636 20.9846 25.5636 22.7737C25.5636 24.5629 24.1132 26.0133 22.324 26.0133C20.9135 26.0133 19.7136 25.1118 19.2689 23.8536H13.6853C13.089 23.8536 12.6055 23.3701 12.6055 22.7737V16.2947H10.2615C9.81677 17.5529 8.61682 18.4544 7.20631 18.4544C5.41718 18.4544 3.9668 17.004 3.9668 15.2149C3.9668 13.4257 5.41718 11.9754 7.20631 11.9754C8.61682 11.9754 9.81677 12.8768 10.2615 14.135H12.6055V7.65602C12.6055 7.05964 13.089 6.57618 13.6853 6.57618H19.2689C19.7136 5.31796 20.9135 4.4165 22.324 4.4165C24.1132 4.4165 25.5636 5.86688 25.5636 7.65602C25.5636 9.44515 24.1132 10.8955 22.324 10.8955ZM21.2442 7.65602C21.2442 7.05964 21.7277 6.57618 22.324 6.57618C22.9204 6.57618 23.4039 7.05964 23.4039 7.65602C23.4039 8.2524 22.9204 8.73586 22.324 8.73586C21.7277 8.73586 21.2442 8.2524 21.2442 7.65602ZM8.28615 15.2149C8.28615 14.6185 7.80269 14.135 7.20631 14.135C6.60993 14.135 6.12647 14.6185 6.12647 15.2149C6.12647 15.8113 6.60993 16.2947 7.20631 16.2947C7.80269 16.2947 8.28615 15.8113 8.28615 15.2149ZM21.2442 15.2149C21.2442 15.8113 21.7277 16.2947 22.324 16.2947C22.9204 16.2947 23.4039 15.8113 23.4039 15.2149C23.4039 14.6185 22.9204 14.135 22.324 14.135C21.7277 14.135 21.2442 14.6185 21.2442 15.2149ZM22.324 23.8536C21.7277 23.8536 21.2442 23.3701 21.2442 22.7737C21.2442 22.1774 21.7277 21.6939 22.324 21.6939C22.9204 21.6939 23.4039 22.1774 23.4039 22.7737C23.4039 23.3701 22.9204 23.8536 22.324 23.8536Z" fill="white"/>
<path d="M8.28615 15.2149C8.28615 14.6185 7.80269 14.135 7.20631 14.135C6.60993 14.135 6.12647 14.6185 6.12647 15.2149C6.12647 15.8113 6.60993 16.2947 7.20631 16.2947C7.80269 16.2947 8.28615 15.8113 8.28615 15.2149Z" fill="white"/>
<path d="M22.324 16.2947C21.7277 16.2947 21.2442 15.8113 21.2442 15.2149C21.2442 14.6185 21.7277 14.135 22.324 14.135C22.9204 14.135 23.4039 14.6185 23.4039 15.2149C23.4039 15.8113 22.9204 16.2947 22.324 16.2947Z" fill="white"/>
<path d="M22.324 6.57618C21.7277 6.57618 21.2442 7.05964 21.2442 7.65602C21.2442 8.2524 21.7277 8.73586 22.324 8.73586C22.9204 8.73586 23.4039 8.2524 23.4039 7.65602C23.4039 7.05964 22.9204 6.57618 22.324 6.57618Z" fill="white"/>
<path d="M21.2442 22.7737C21.2442 23.3701 21.7277 23.8536 22.324 23.8536C22.9204 23.8536 23.4039 23.3701 23.4039 22.7737C23.4039 22.1774 22.9204 21.6939 22.324 21.6939C21.7277 21.6939 21.2442 22.1774 21.2442 22.7737Z" fill="white"/>
</svg>
