<svg width="155" height="30" viewBox="0 0 155 30" fill="none" xmlns="http://www.w3.org/2000/svg">
<path d="M50.3931 20.2446V22.9868H41.311V20.2446H50.3931ZM42.4595 5.92432V22.9868H38.9438V5.92432H42.4595ZM49.2095 12.8735V15.5454H41.311V12.8735H49.2095ZM50.3813 5.92432V8.67822H41.311V5.92432H50.3813ZM55.7954 4.98682V22.9868H52.4087V4.98682H55.7954ZM64.4204 23.2212C63.436 23.2212 62.5532 23.0649 61.772 22.7524C60.9907 22.4321 60.3267 21.9907 59.7798 21.4282C59.2407 20.8657 58.8267 20.2134 58.5376 19.4712C58.2485 18.7212 58.104 17.9243 58.104 17.0806V16.6118C58.104 15.6509 58.2407 14.772 58.5142 13.9751C58.7876 13.1782 59.1782 12.4868 59.686 11.9009C60.2017 11.3149 60.8267 10.8657 61.561 10.5532C62.2954 10.2329 63.1235 10.0728 64.0454 10.0728C64.9438 10.0728 65.7407 10.2212 66.436 10.5181C67.1313 10.8149 67.7134 11.2368 68.1821 11.7837C68.6587 12.3306 69.0181 12.9868 69.2603 13.7524C69.5024 14.5103 69.6235 15.354 69.6235 16.2837V17.6899H59.5454V15.4399H66.3071V15.1821C66.3071 14.7134 66.2212 14.2954 66.0493 13.9282C65.8853 13.5532 65.6353 13.2563 65.2993 13.0376C64.9634 12.8188 64.5337 12.7095 64.0103 12.7095C63.5649 12.7095 63.1821 12.8071 62.8618 13.0024C62.5415 13.1978 62.2798 13.4712 62.0767 13.8228C61.8813 14.1743 61.7329 14.5884 61.6313 15.0649C61.5376 15.5337 61.4907 16.0493 61.4907 16.6118V17.0806C61.4907 17.5884 61.561 18.0571 61.7017 18.4868C61.8501 18.9165 62.0571 19.2876 62.3228 19.6001C62.5962 19.9126 62.9243 20.1548 63.3071 20.3267C63.6978 20.4985 64.1392 20.5845 64.6313 20.5845C65.2407 20.5845 65.8071 20.4673 66.3306 20.2329C66.8618 19.9907 67.3188 19.6274 67.7017 19.1431L69.3423 20.9243C69.0767 21.3071 68.7134 21.6743 68.2524 22.0259C67.7993 22.3774 67.2524 22.6665 66.6118 22.8931C65.9712 23.1118 65.2407 23.2212 64.4204 23.2212ZM74.9204 12.9321V22.9868H71.5337V10.3071H74.7095L74.9204 12.9321ZM74.4517 16.2017H73.5142C73.5142 15.3188 73.6196 14.5063 73.8306 13.7642C74.0493 13.0142 74.3657 12.3657 74.7798 11.8188C75.2017 11.2642 75.7212 10.8345 76.3384 10.5298C76.9556 10.2251 77.6704 10.0728 78.4829 10.0728C79.0454 10.0728 79.561 10.1587 80.0298 10.3306C80.4985 10.4946 80.9009 10.7563 81.2368 11.1157C81.5806 11.4673 81.8462 11.9282 82.0337 12.4985C82.2212 13.061 82.3149 13.7368 82.3149 14.5259V22.9868H78.9399V14.9009C78.9399 14.3228 78.8618 13.8774 78.7056 13.5649C78.5493 13.2524 78.3267 13.0337 78.0376 12.9087C77.7563 12.7837 77.4165 12.7212 77.0181 12.7212C76.5806 12.7212 76.1978 12.811 75.8696 12.9907C75.5493 13.1704 75.2837 13.4204 75.0728 13.7407C74.8618 14.0532 74.7056 14.4204 74.604 14.8423C74.5024 15.2642 74.4517 15.7173 74.4517 16.2017ZM81.9985 15.8149L80.7915 15.9673C80.7915 15.1392 80.8931 14.3696 81.0962 13.6587C81.3071 12.9478 81.6157 12.3228 82.022 11.7837C82.436 11.2446 82.9478 10.8267 83.5571 10.5298C84.1665 10.2251 84.8696 10.0728 85.6665 10.0728C86.2759 10.0728 86.8306 10.1626 87.3306 10.3423C87.8306 10.5142 88.2563 10.7915 88.6079 11.1743C88.9673 11.5493 89.2407 12.0415 89.4282 12.6509C89.6235 13.2603 89.7212 14.0063 89.7212 14.8892V22.9868H86.3345V14.8892C86.3345 14.3032 86.2563 13.8579 86.1001 13.5532C85.9517 13.2407 85.7329 13.0259 85.4438 12.9087C85.1626 12.7837 84.8267 12.7212 84.436 12.7212C84.0298 12.7212 83.6743 12.8032 83.3696 12.9673C83.0649 13.1235 82.811 13.3423 82.6079 13.6235C82.4048 13.9048 82.2524 14.2329 82.1509 14.6079C82.0493 14.9751 81.9985 15.3774 81.9985 15.8149ZM102.424 20.3501V22.9868H92.7915V20.3501H102.424ZM102.237 12.2524L94.1509 22.9868H91.8892V20.9829L99.9399 10.3071H102.237V12.2524ZM101.042 10.3071V12.9556H92.0767V10.3071H101.042ZM110.194 23.2212C109.209 23.2212 108.327 23.0649 107.545 22.7524C106.764 22.4321 106.1 21.9907 105.553 21.4282C105.014 20.8657 104.6 20.2134 104.311 19.4712C104.022 18.7212 103.877 17.9243 103.877 17.0806V16.6118C103.877 15.6509 104.014 14.772 104.288 13.9751C104.561 13.1782 104.952 12.4868 105.459 11.9009C105.975 11.3149 106.6 10.8657 107.334 10.5532C108.069 10.2329 108.897 10.0728 109.819 10.0728C110.717 10.0728 111.514 10.2212 112.209 10.5181C112.905 10.8149 113.487 11.2368 113.956 11.7837C114.432 12.3306 114.792 12.9868 115.034 13.7524C115.276 14.5103 115.397 15.354 115.397 16.2837V17.6899H105.319V15.4399H112.081V15.1821C112.081 14.7134 111.995 14.2954 111.823 13.9282C111.659 13.5532 111.409 13.2563 111.073 13.0376C110.737 12.8188 110.307 12.7095 109.784 12.7095C109.338 12.7095 108.956 12.8071 108.635 13.0024C108.315 13.1978 108.053 13.4712 107.85 13.8228C107.655 14.1743 107.506 14.5884 107.405 15.0649C107.311 15.5337 107.264 16.0493 107.264 16.6118V17.0806C107.264 17.5884 107.334 18.0571 107.475 18.4868C107.624 18.9165 107.831 19.2876 108.096 19.6001C108.37 19.9126 108.698 20.1548 109.081 20.3267C109.471 20.4985 109.913 20.5845 110.405 20.5845C111.014 20.5845 111.581 20.4673 112.104 20.2329C112.635 19.9907 113.092 19.6274 113.475 19.1431L115.116 20.9243C114.85 21.3071 114.487 21.6743 114.026 22.0259C113.573 22.3774 113.026 22.6665 112.385 22.8931C111.745 23.1118 111.014 23.2212 110.194 23.2212ZM107.815 8.58447L110.112 4.9751H113.78L110.557 8.58447H107.815ZM124.174 19.4829C124.174 19.2407 124.104 19.022 123.963 18.8267C123.823 18.6313 123.561 18.4517 123.178 18.2876C122.803 18.1157 122.26 17.9595 121.549 17.8188C120.909 17.6782 120.311 17.5024 119.756 17.2915C119.209 17.0728 118.733 16.811 118.327 16.5063C117.928 16.2017 117.616 15.8423 117.389 15.4282C117.163 15.0063 117.049 14.5259 117.049 13.9868C117.049 13.4556 117.163 12.9556 117.389 12.4868C117.624 12.0181 117.956 11.604 118.385 11.2446C118.823 10.8774 119.354 10.5923 119.979 10.3892C120.612 10.1782 121.323 10.0728 122.112 10.0728C123.213 10.0728 124.159 10.2485 124.948 10.6001C125.745 10.9517 126.354 11.436 126.776 12.0532C127.206 12.6626 127.42 13.3579 127.42 14.1392H124.045C124.045 13.811 123.975 13.5181 123.834 13.2603C123.702 12.9946 123.491 12.7876 123.202 12.6392C122.92 12.4829 122.553 12.4048 122.1 12.4048C121.725 12.4048 121.401 12.4712 121.127 12.604C120.854 12.729 120.643 12.9009 120.495 13.1196C120.354 13.3306 120.284 13.5649 120.284 13.8228C120.284 14.0181 120.323 14.1938 120.401 14.3501C120.487 14.4985 120.624 14.6353 120.811 14.7603C120.999 14.8853 121.241 15.0024 121.538 15.1118C121.842 15.2134 122.217 15.3071 122.663 15.3931C123.577 15.5806 124.393 15.8267 125.112 16.1313C125.831 16.4282 126.401 16.8345 126.823 17.3501C127.245 17.8579 127.456 18.5259 127.456 19.354C127.456 19.9165 127.331 20.4321 127.081 20.9009C126.831 21.3696 126.471 21.7798 126.002 22.1313C125.534 22.4751 124.971 22.7446 124.315 22.9399C123.667 23.1274 122.936 23.2212 122.124 23.2212C120.944 23.2212 119.944 23.0103 119.124 22.5884C118.311 22.1665 117.694 21.6313 117.272 20.9829C116.858 20.3267 116.651 19.6548 116.651 18.9673H119.85C119.866 19.4282 119.983 19.7993 120.202 20.0806C120.428 20.3618 120.713 20.5649 121.057 20.6899C121.409 20.8149 121.788 20.8774 122.194 20.8774C122.631 20.8774 122.995 20.8188 123.284 20.7017C123.573 20.5767 123.792 20.4126 123.94 20.2095C124.096 19.9985 124.174 19.7563 124.174 19.4829ZM135.483 23.2212C134.499 23.2212 133.616 23.0649 132.834 22.7524C132.053 22.4321 131.389 21.9907 130.842 21.4282C130.303 20.8657 129.889 20.2134 129.6 19.4712C129.311 18.7212 129.167 17.9243 129.167 17.0806V16.6118C129.167 15.6509 129.303 14.772 129.577 13.9751C129.85 13.1782 130.241 12.4868 130.749 11.9009C131.264 11.3149 131.889 10.8657 132.624 10.5532C133.358 10.2329 134.186 10.0728 135.108 10.0728C136.006 10.0728 136.803 10.2212 137.499 10.5181C138.194 10.8149 138.776 11.2368 139.245 11.7837C139.721 12.3306 140.081 12.9868 140.323 13.7524C140.565 14.5103 140.686 15.354 140.686 16.2837V17.6899H130.608V15.4399H137.37V15.1821C137.37 14.7134 137.284 14.2954 137.112 13.9282C136.948 13.5532 136.698 13.2563 136.362 13.0376C136.026 12.8188 135.596 12.7095 135.073 12.7095C134.627 12.7095 134.245 12.8071 133.924 13.0024C133.604 13.1978 133.342 13.4712 133.139 13.8228C132.944 14.1743 132.795 14.5884 132.694 15.0649C132.6 15.5337 132.553 16.0493 132.553 16.6118V17.0806C132.553 17.5884 132.624 18.0571 132.764 18.4868C132.913 18.9165 133.12 19.2876 133.385 19.6001C133.659 19.9126 133.987 20.1548 134.37 20.3267C134.76 20.4985 135.202 20.5845 135.694 20.5845C136.303 20.5845 136.87 20.4673 137.393 20.2329C137.924 19.9907 138.381 19.6274 138.764 19.1431L140.405 20.9243C140.139 21.3071 139.776 21.6743 139.315 22.0259C138.862 22.3774 138.315 22.6665 137.674 22.8931C137.034 23.1118 136.303 23.2212 135.483 23.2212ZM145.983 4.9751V22.9868H142.608V4.9751H145.983ZM153.975 10.3071L148.467 16.5884L145.514 19.5767L144.284 17.1392L146.627 14.1626L149.92 10.3071H153.975ZM150.471 22.9868L146.721 17.1274L149.053 15.0884L154.362 22.9868H150.471Z" fill="white"/>
<path fill-rule="evenodd" clip-rule="evenodd" d="M22.1053 10.8955C20.6948 10.8955 19.4948 9.99407 19.0501 8.73586H14.5464V14.135H19.0501C19.4948 12.8768 20.6948 11.9754 22.1053 11.9754C23.8944 11.9754 25.3448 13.4257 25.3448 15.2149C25.3448 17.004 23.8944 18.4544 22.1053 18.4544C20.6948 18.4544 19.4948 17.5529 19.0501 16.2947H14.5464V21.6939H19.0501C19.4948 20.4357 20.6948 19.5342 22.1053 19.5342C23.8944 19.5342 25.3448 20.9846 25.3448 22.7737C25.3448 24.5629 23.8944 26.0133 22.1053 26.0133C20.6948 26.0133 19.4948 25.1118 19.0501 23.8536H13.4666C12.8702 23.8536 12.3868 23.3701 12.3868 22.7737V16.2947H10.0427C9.59802 17.5529 8.39807 18.4544 6.98756 18.4544C5.19843 18.4544 3.74805 17.004 3.74805 15.2149C3.74805 13.4257 5.19843 11.9754 6.98756 11.9754C8.39807 11.9754 9.59802 12.8768 10.0427 14.135H12.3868V7.65602C12.3868 7.05964 12.8702 6.57618 13.4666 6.57618H19.0501C19.4948 5.31796 20.6948 4.4165 22.1053 4.4165C23.8944 4.4165 25.3448 5.86688 25.3448 7.65602C25.3448 9.44515 23.8944 10.8955 22.1053 10.8955ZM21.0255 7.65602C21.0255 7.05964 21.5089 6.57618 22.1053 6.57618C22.7017 6.57618 23.1851 7.05964 23.1851 7.65602C23.1851 8.2524 22.7017 8.73586 22.1053 8.73586C21.5089 8.73586 21.0255 8.2524 21.0255 7.65602ZM8.0674 15.2149C8.0674 14.6185 7.58394 14.135 6.98756 14.135C6.39118 14.135 5.90772 14.6185 5.90772 15.2149C5.90772 15.8113 6.39118 16.2947 6.98756 16.2947C7.58394 16.2947 8.0674 15.8113 8.0674 15.2149ZM21.0255 15.2149C21.0255 15.8113 21.5089 16.2947 22.1053 16.2947C22.7017 16.2947 23.1851 15.8113 23.1851 15.2149C23.1851 14.6185 22.7017 14.135 22.1053 14.135C21.5089 14.135 21.0255 14.6185 21.0255 15.2149ZM22.1053 23.8536C21.5089 23.8536 21.0255 23.3701 21.0255 22.7737C21.0255 22.1774 21.5089 21.6939 22.1053 21.6939C22.7017 21.6939 23.1851 22.1774 23.1851 22.7737C23.1851 23.3701 22.7017 23.8536 22.1053 23.8536Z" fill="white"/>
<path d="M8.0674 15.2149C8.0674 14.6185 7.58394 14.135 6.98756 14.135C6.39118 14.135 5.90772 14.6185 5.90772 15.2149C5.90772 15.8113 6.39118 16.2947 6.98756 16.2947C7.58394 16.2947 8.0674 15.8113 8.0674 15.2149Z" fill="white"/>
<path d="M22.1053 16.2947C21.5089 16.2947 21.0255 15.8113 21.0255 15.2149C21.0255 14.6185 21.5089 14.135 22.1053 14.135C22.7017 14.135 23.1851 14.6185 23.1851 15.2149C23.1851 15.8113 22.7017 16.2947 22.1053 16.2947Z" fill="white"/>
<path d="M22.1053 6.57618C21.5089 6.57618 21.0255 7.05964 21.0255 7.65602C21.0255 8.2524 21.5089 8.73586 22.1053 8.73586C22.7017 8.73586 23.1851 8.2524 23.1851 7.65602C23.1851 7.05964 22.7017 6.57618 22.1053 6.57618Z" fill="white"/>
<path d="M21.0255 22.7737C21.0255 23.3701 21.5089 23.8536 22.1053 23.8536C22.7017 23.8536 23.1851 23.3701 23.1851 22.7737C23.1851 22.1774 22.7017 21.6939 22.1053 21.6939C21.5089 21.6939 21.0255 22.1774 21.0255 22.7737Z" fill="white"/>
</svg>
