<svg width="123" height="32" viewBox="0 0 123 32" fill="none" xmlns="http://www.w3.org/2000/svg">
<path d="M44.1357 6.9375V24H40.6318V6.9375H44.1357ZM50.5225 14.0273V24H47.1475V11.3203H50.3115L50.5225 14.0273ZM50.0303 17.2148H49.1162C49.1162 16.2773 49.2373 15.4336 49.4795 14.6836C49.7217 13.9258 50.0615 13.2812 50.499 12.75C50.9365 12.2109 51.4561 11.8008 52.0576 11.5195C52.667 11.2305 53.3467 11.0859 54.0967 11.0859C54.6904 11.0859 55.2334 11.1719 55.7256 11.3438C56.2178 11.5156 56.6396 11.7891 56.9912 12.1641C57.3506 12.5391 57.624 13.0352 57.8115 13.6523C58.0068 14.2695 58.1045 15.0234 58.1045 15.9141V24H54.7061V15.9023C54.7061 15.3398 54.6279 14.9023 54.4717 14.5898C54.3154 14.2773 54.085 14.0586 53.7803 13.9336C53.4834 13.8008 53.1162 13.7344 52.6787 13.7344C52.2256 13.7344 51.8311 13.8242 51.4951 14.0039C51.167 14.1836 50.8936 14.4336 50.6748 14.7539C50.4639 15.0664 50.3037 15.4336 50.1943 15.8555C50.085 16.2773 50.0303 16.7305 50.0303 17.2148ZM66.8818 11.3203V13.7109H59.499V11.3203H66.8818ZM61.3271 8.19141H64.7021V20.1797C64.7021 20.5469 64.749 20.8281 64.8428 21.0234C64.9443 21.2188 65.0928 21.3555 65.2881 21.4336C65.4834 21.5039 65.7295 21.5391 66.0264 21.5391C66.2373 21.5391 66.4248 21.5312 66.5889 21.5156C66.7607 21.4922 66.9053 21.4688 67.0225 21.4453L67.0342 23.9297C66.7451 24.0234 66.4326 24.0977 66.0967 24.1523C65.7607 24.207 65.3896 24.2344 64.9834 24.2344C64.2412 24.2344 63.5928 24.1133 63.0381 23.8711C62.4912 23.6211 62.0693 23.2227 61.7725 22.6758C61.4756 22.1289 61.3271 21.4102 61.3271 20.5195V8.19141ZM74.6396 24.2344C73.6553 24.2344 72.7725 24.0781 71.9912 23.7656C71.21 23.4453 70.5459 23.0039 69.999 22.4414C69.46 21.8789 69.0459 21.2266 68.7568 20.4844C68.4678 19.7344 68.3232 18.9375 68.3232 18.0938V17.625C68.3232 16.6641 68.46 15.7852 68.7334 14.9883C69.0068 14.1914 69.3975 13.5 69.9053 12.9141C70.4209 12.3281 71.0459 11.8789 71.7803 11.5664C72.5146 11.2461 73.3428 11.0859 74.2646 11.0859C75.1631 11.0859 75.96 11.2344 76.6553 11.5312C77.3506 11.8281 77.9326 12.25 78.4014 12.7969C78.8779 13.3438 79.2373 14 79.4795 14.7656C79.7217 15.5234 79.8428 16.3672 79.8428 17.2969V18.7031H69.7646V16.4531H76.5264V16.1953C76.5264 15.7266 76.4404 15.3086 76.2686 14.9414C76.1045 14.5664 75.8545 14.2695 75.5186 14.0508C75.1826 13.832 74.7529 13.7227 74.2295 13.7227C73.7842 13.7227 73.4014 13.8203 73.0811 14.0156C72.7607 14.2109 72.499 14.4844 72.2959 14.8359C72.1006 15.1875 71.9521 15.6016 71.8506 16.0781C71.7568 16.5469 71.71 17.0625 71.71 17.625V18.0938C71.71 18.6016 71.7803 19.0703 71.9209 19.5C72.0693 19.9297 72.2764 20.3008 72.542 20.6133C72.8154 20.9258 73.1436 21.168 73.5264 21.3398C73.917 21.5117 74.3584 21.5977 74.8506 21.5977C75.46 21.5977 76.0264 21.4805 76.5498 21.2461C77.0811 21.0039 77.5381 20.6406 77.9209 20.1562L79.5615 21.9375C79.2959 22.3203 78.9326 22.6875 78.4717 23.0391C78.0186 23.3906 77.4717 23.6797 76.8311 23.9062C76.1904 24.125 75.46 24.2344 74.6396 24.2344ZM85.1396 14.0859V24H81.7646V11.3203H84.9404L85.1396 14.0859ZM88.96 11.2383L88.9014 14.3672C88.7373 14.3438 88.5381 14.3242 88.3037 14.3086C88.0771 14.2852 87.8701 14.2734 87.6826 14.2734C87.2061 14.2734 86.792 14.3359 86.4404 14.4609C86.0967 14.5781 85.8076 14.7539 85.5732 14.9883C85.3467 15.2227 85.1748 15.5078 85.0576 15.8438C84.9482 16.1797 84.8857 16.5625 84.8701 16.9922L84.1904 16.7812C84.1904 15.9609 84.2725 15.207 84.4365 14.5195C84.6006 13.8242 84.8389 13.2188 85.1514 12.7031C85.4717 12.1875 85.8623 11.7891 86.3232 11.5078C86.7842 11.2266 87.3115 11.0859 87.9053 11.0859C88.0928 11.0859 88.2842 11.1016 88.4795 11.1328C88.6748 11.1562 88.835 11.1914 88.96 11.2383ZM90.7412 11.3203H94.1279V24.7617C94.1279 25.6992 93.9561 26.4922 93.6123 27.1406C93.2686 27.7891 92.7725 28.2812 92.124 28.6172C91.4756 28.9531 90.6904 29.1211 89.7686 29.1211C89.4795 29.1211 89.1982 29.1055 88.9248 29.0742C88.6436 29.043 88.3545 28.9922 88.0576 28.9219L88.0693 26.332C88.2568 26.3633 88.4404 26.3867 88.6201 26.4023C88.792 26.4258 88.9678 26.4375 89.1475 26.4375C89.499 26.4375 89.792 26.3789 90.0264 26.2617C90.2607 26.1445 90.4365 25.9609 90.5537 25.7109C90.6787 25.4688 90.7412 25.1523 90.7412 24.7617V11.3203ZM90.4717 8.01562C90.4717 7.52344 90.6436 7.11719 90.9873 6.79688C91.3389 6.47656 91.7998 6.31641 92.3701 6.31641C92.9482 6.31641 93.4092 6.47656 93.7529 6.79688C94.0967 7.11719 94.2686 7.52344 94.2686 8.01562C94.2686 8.50781 94.0967 8.91406 93.7529 9.23438C93.4092 9.55469 92.9482 9.71484 92.3701 9.71484C91.7998 9.71484 91.3389 9.55469 90.9873 9.23438C90.6436 8.91406 90.4717 8.50781 90.4717 8.01562ZM104.312 20.9648V11.3203H107.687V24H104.511L104.312 20.9648ZM104.687 18.3633L105.683 18.3398C105.683 19.1836 105.585 19.9688 105.39 20.6953C105.194 21.4141 104.901 22.0391 104.511 22.5703C104.12 23.0938 103.628 23.5039 103.034 23.8008C102.44 24.0898 101.741 24.2344 100.937 24.2344C100.319 24.2344 99.749 24.1484 99.2256 23.9766C98.71 23.7969 98.2646 23.5195 97.8896 23.1445C97.5225 22.7617 97.2334 22.2734 97.0225 21.6797C96.8193 21.0781 96.7178 20.3555 96.7178 19.5117V11.3203H100.093V19.5352C100.093 19.9102 100.136 20.2266 100.222 20.4844C100.315 20.7422 100.444 20.9531 100.608 21.1172C100.772 21.2812 100.964 21.3984 101.183 21.4688C101.409 21.5391 101.659 21.5742 101.933 21.5742C102.628 21.5742 103.175 21.4336 103.573 21.1523C103.979 20.8711 104.265 20.4883 104.429 20.0039C104.601 19.5117 104.687 18.9648 104.687 18.3633ZM100.608 9.60938L102.905 6H106.573L103.351 9.60938H100.608ZM113.64 5.98828V24H110.265V5.98828H113.64ZM121.632 11.3203L116.124 17.6016L113.171 20.5898L111.94 18.1523L114.284 15.1758L117.577 11.3203H121.632ZM118.128 24L114.378 18.1406L116.71 16.1016L122.019 24H118.128Z" fill="white"/>
<path fill-rule="evenodd" clip-rule="evenodd" d="M16.0002 19.9999C18.9457 19.9999 21.3335 17.6121 21.3335 14.6666V6.66659C21.3335 3.72107 18.9457 1.33325 16.0002 1.33325C13.0546 1.33325 10.6668 3.72107 10.6668 6.66659V14.6666C10.6668 17.6121 13.0546 19.9999 16.0002 19.9999ZM26.6668 14.6666C26.6668 13.9302 26.0699 13.3333 25.3335 13.3333C24.5971 13.3333 24.0002 13.9302 24.0002 14.6666C24.0002 19.0849 20.4184 22.6666 16.0002 22.6666C11.5819 22.6666 8.00016 19.0849 8.00016 14.6666C8.00016 13.9302 7.40321 13.3333 6.66683 13.3333C5.93045 13.3333 5.3335 13.9302 5.3335 14.6666C5.33837 20.0384 9.33715 24.5684 14.6668 25.2399V27.9999H12.0002C11.2638 27.9999 10.6668 28.5969 10.6668 29.3333C10.6668 30.0696 11.2638 30.6666 12.0002 30.6666H20.0002C20.7365 30.6666 21.3335 30.0696 21.3335 29.3333C21.3335 28.5969 20.7365 27.9999 20.0002 27.9999H17.3335V25.2399C22.6632 24.5684 26.662 20.0384 26.6668 14.6666Z" fill="white"/>
</svg>
