<svg width="118" height="32" viewBox="0 0 118 32" fill="none" xmlns="http://www.w3.org/2000/svg">
<path d="M44.3335 6.9375V24H40.8179V6.9375H44.3335ZM54.5522 6.9375L47.7905 15.3633L43.8882 19.5586L43.2554 16.2305L45.8921 12.6211L50.2397 6.9375H54.5522ZM50.5562 24L45.5288 16.1133L48.1304 13.9336L54.7163 24H50.5562ZM63.0835 20.9648V11.3203H66.4585V24H63.2827L63.0835 20.9648ZM63.4585 18.3633L64.4546 18.3398C64.4546 19.1836 64.3569 19.9688 64.1616 20.6953C63.9663 21.4141 63.6733 22.0391 63.2827 22.5703C62.8921 23.0938 62.3999 23.5039 61.8062 23.8008C61.2124 24.0898 60.5132 24.2344 59.7085 24.2344C59.0913 24.2344 58.521 24.1484 57.9976 23.9766C57.4819 23.7969 57.0366 23.5195 56.6616 23.1445C56.2944 22.7617 56.0054 22.2734 55.7944 21.6797C55.5913 21.0781 55.4897 20.3555 55.4897 19.5117V11.3203H58.8647V19.5352C58.8647 19.9102 58.9077 20.2266 58.9937 20.4844C59.0874 20.7422 59.2163 20.9531 59.3804 21.1172C59.5444 21.2812 59.7358 21.3984 59.9546 21.4688C60.1812 21.5391 60.4312 21.5742 60.7046 21.5742C61.3999 21.5742 61.9468 21.4336 62.3452 21.1523C62.7515 20.8711 63.0366 20.4883 63.2007 20.0039C63.3726 19.5117 63.4585 18.9648 63.4585 18.3633ZM72.5991 6V24H69.2124V6H72.5991ZM81.5991 11.3203V13.7109H74.2163V11.3203H81.5991ZM76.0444 8.19141H79.4194V20.1797C79.4194 20.5469 79.4663 20.8281 79.5601 21.0234C79.6616 21.2188 79.8101 21.3555 80.0054 21.4336C80.2007 21.5039 80.4468 21.5391 80.7437 21.5391C80.9546 21.5391 81.1421 21.5312 81.3062 21.5156C81.478 21.4922 81.6226 21.4688 81.7397 21.4453L81.7515 23.9297C81.4624 24.0234 81.1499 24.0977 80.814 24.1523C80.478 24.207 80.1069 24.2344 79.7007 24.2344C78.9585 24.2344 78.3101 24.1133 77.7554 23.8711C77.2085 23.6211 76.7866 23.2227 76.4897 22.6758C76.1929 22.1289 76.0444 21.4102 76.0444 20.5195V8.19141ZM91.021 20.9648V11.3203H94.396V24H91.2202L91.021 20.9648ZM91.396 18.3633L92.3921 18.3398C92.3921 19.1836 92.2944 19.9688 92.0991 20.6953C91.9038 21.4141 91.6108 22.0391 91.2202 22.5703C90.8296 23.0938 90.3374 23.5039 89.7437 23.8008C89.1499 24.0898 88.4507 24.2344 87.646 24.2344C87.0288 24.2344 86.4585 24.1484 85.9351 23.9766C85.4194 23.7969 84.9741 23.5195 84.5991 23.1445C84.2319 22.7617 83.9429 22.2734 83.7319 21.6797C83.5288 21.0781 83.4272 20.3555 83.4272 19.5117V11.3203H86.8022V19.5352C86.8022 19.9102 86.8452 20.2266 86.9312 20.4844C87.0249 20.7422 87.1538 20.9531 87.3179 21.1172C87.4819 21.2812 87.6733 21.3984 87.8921 21.4688C88.1187 21.5391 88.3687 21.5742 88.6421 21.5742C89.3374 21.5742 89.8843 21.4336 90.2827 21.1523C90.689 20.8711 90.9741 20.4883 91.1382 20.0039C91.3101 19.5117 91.396 18.9648 91.396 18.3633ZM87.3179 9.60938L89.6147 6H93.2827L90.0601 9.60938H87.3179ZM100.349 14.0859V24H96.9741V11.3203H100.15L100.349 14.0859ZM104.169 11.2383L104.111 14.3672C103.947 14.3438 103.748 14.3242 103.513 14.3086C103.287 14.2852 103.08 14.2734 102.892 14.2734C102.416 14.2734 102.001 14.3359 101.65 14.4609C101.306 14.5781 101.017 14.7539 100.783 14.9883C100.556 15.2227 100.384 15.5078 100.267 15.8438C100.158 16.1797 100.095 16.5625 100.08 16.9922L99.3999 16.7812C99.3999 15.9609 99.4819 15.207 99.646 14.5195C99.8101 13.8242 100.048 13.2188 100.361 12.7031C100.681 12.1875 101.072 11.7891 101.533 11.5078C101.994 11.2266 102.521 11.0859 103.115 11.0859C103.302 11.0859 103.494 11.1016 103.689 11.1328C103.884 11.1562 104.044 11.1914 104.169 11.2383ZM112.208 21.1406V15.4922C112.208 15.0859 112.142 14.7383 112.009 14.4492C111.876 14.1523 111.669 13.9219 111.388 13.7578C111.115 13.5938 110.759 13.5117 110.322 13.5117C109.947 13.5117 109.623 13.5781 109.349 13.7109C109.076 13.8359 108.865 14.0195 108.716 14.2617C108.568 14.4961 108.494 14.7734 108.494 15.0938H105.119C105.119 14.5547 105.244 14.043 105.494 13.5586C105.744 13.0742 106.107 12.6484 106.583 12.2812C107.06 11.9062 107.626 11.6133 108.283 11.4023C108.947 11.1914 109.689 11.0859 110.509 11.0859C111.494 11.0859 112.369 11.25 113.134 11.5781C113.9 11.9062 114.501 12.3984 114.939 13.0547C115.384 13.7109 115.607 14.5312 115.607 15.5156V20.9414C115.607 21.6367 115.65 22.207 115.736 22.6523C115.822 23.0898 115.947 23.4727 116.111 23.8008V24H112.701C112.537 23.6562 112.412 23.2266 112.326 22.7109C112.248 22.1875 112.208 21.6641 112.208 21.1406ZM112.654 16.2773L112.677 18.1875H110.791C110.345 18.1875 109.958 18.2383 109.63 18.3398C109.302 18.4414 109.033 18.5859 108.822 18.7734C108.611 18.9531 108.455 19.1641 108.353 19.4062C108.259 19.6484 108.212 19.9141 108.212 20.2031C108.212 20.4922 108.279 20.7539 108.412 20.9883C108.544 21.2148 108.736 21.3945 108.986 21.5273C109.236 21.6523 109.529 21.7148 109.865 21.7148C110.373 21.7148 110.814 21.6133 111.189 21.4102C111.564 21.207 111.853 20.957 112.056 20.6602C112.267 20.3633 112.376 20.082 112.384 19.8164L113.275 21.2461C113.15 21.5664 112.978 21.8984 112.759 22.2422C112.548 22.5859 112.279 22.9102 111.951 23.2148C111.623 23.5117 111.228 23.7578 110.767 23.9531C110.306 24.1406 109.759 24.2344 109.126 24.2344C108.322 24.2344 107.591 24.0742 106.935 23.7539C106.287 23.4258 105.771 22.9766 105.388 22.4062C105.013 21.8281 104.826 21.1719 104.826 20.4375C104.826 19.7734 104.951 19.1836 105.201 18.668C105.451 18.1523 105.818 17.7188 106.302 17.3672C106.794 17.0078 107.408 16.7383 108.142 16.5586C108.876 16.3711 109.728 16.2773 110.697 16.2773H112.654Z" fill="white"/>
<g clip-path="url(#clip0_147_1238)">
<path d="M29.9337 18.9526V17.3525H18.7564C17.3178 17.3525 16.036 18.0327 15.2129 19.0875C14.3897 18.0328 13.1079 17.3525 11.6694 17.3525H0.492188V18.9526H10.5401V20.8537H0.492188V22.4537H2.39325H14.2624H16.1635H28.0326H29.9337V20.8537H19.8858V18.9526H29.9337Z" fill="white"/>
<path d="M1.11346 24.3545H0.491652H-0.787598V26.8039H14.2618V24.9028V24.3545H1.11346Z" fill="white"/>
<path d="M29.9338 24.3545H29.312H16.1636V24.9028V26.8039H31.2131V24.3545H29.9338Z" fill="white"/>
<path d="M17.3713 5.19604H15.4702V11.7529H17.3713V5.19604Z" fill="white"/>
<path d="M4.47315 9.75073L3.12891 11.095L7.76518 15.7312L9.10943 14.387L4.47315 9.75073Z" fill="white"/>
<path d="M22.3722 6.19126L19.8628 12.2493L21.6192 12.9768L24.1286 6.91882L22.3722 6.19126Z" fill="white"/>
<path d="M10.4689 6.19114L8.7124 6.9187L11.2218 12.9767L12.9782 12.2492L10.4689 6.19114Z" fill="white"/>
<path d="M28.3682 9.7519L23.7319 14.3882L25.0762 15.7324L29.7125 11.0961L28.3682 9.7519Z" fill="white"/>
</g>
<defs>
<clipPath id="clip0_147_1238">
<rect width="32" height="32" fill="white" transform="translate(0.42041)"/>
</clipPath>
</defs>
</svg>
