<svg width="164" height="30" viewBox="0 0 164 30" fill="none" xmlns="http://www.w3.org/2000/svg">
<path d="M49.459 20.2446V22.9868H40.8691V20.2446H49.459ZM42.0059 5.92432V22.9868H38.4902V5.92432H42.0059ZM58.1074 20.1274V14.479C58.1074 14.0728 58.041 13.7251 57.9082 13.436C57.7754 13.1392 57.5684 12.9087 57.2871 12.7446C57.0137 12.5806 56.6582 12.4985 56.2207 12.4985C55.8457 12.4985 55.5215 12.5649 55.248 12.6978C54.9746 12.8228 54.7637 13.0063 54.6152 13.2485C54.4668 13.4829 54.3926 13.7603 54.3926 14.0806H51.0176C51.0176 13.5415 51.1426 13.0298 51.3926 12.5454C51.6426 12.061 52.0059 11.6353 52.4824 11.2681C52.959 10.8931 53.5254 10.6001 54.1816 10.3892C54.8457 10.1782 55.5879 10.0728 56.4082 10.0728C57.3926 10.0728 58.2676 10.2368 59.0332 10.5649C59.7988 10.8931 60.4004 11.3853 60.8379 12.0415C61.2832 12.6978 61.5059 13.5181 61.5059 14.5024V19.9282C61.5059 20.6235 61.5488 21.1938 61.6348 21.6392C61.7207 22.0767 61.8457 22.4595 62.0098 22.7876V22.9868H58.5996C58.4355 22.6431 58.3105 22.2134 58.2246 21.6978C58.1465 21.1743 58.1074 20.6509 58.1074 20.1274ZM58.5527 15.2642L58.5762 17.1743H56.6895C56.2441 17.1743 55.8574 17.2251 55.5293 17.3267C55.2012 17.4282 54.9316 17.5728 54.7207 17.7603C54.5098 17.9399 54.3535 18.1509 54.252 18.3931C54.1582 18.6353 54.1113 18.9009 54.1113 19.1899C54.1113 19.479 54.1777 19.7407 54.3105 19.9751C54.4434 20.2017 54.6348 20.3813 54.8848 20.5142C55.1348 20.6392 55.4277 20.7017 55.7637 20.7017C56.2715 20.7017 56.7129 20.6001 57.0879 20.397C57.4629 20.1938 57.752 19.9438 57.9551 19.647C58.166 19.3501 58.2754 19.0688 58.2832 18.8032L59.1738 20.2329C59.0488 20.5532 58.877 20.8853 58.6582 21.229C58.4473 21.5728 58.1777 21.897 57.8496 22.2017C57.5215 22.4985 57.127 22.7446 56.666 22.9399C56.2051 23.1274 55.6582 23.2212 55.0254 23.2212C54.2207 23.2212 53.4902 23.061 52.834 22.7407C52.1855 22.4126 51.6699 21.9634 51.2871 21.3931C50.9121 20.8149 50.7246 20.1587 50.7246 19.4243C50.7246 18.7603 50.8496 18.1704 51.0996 17.6548C51.3496 17.1392 51.7168 16.7056 52.2012 16.354C52.6934 15.9946 53.3066 15.7251 54.041 15.5454C54.7754 15.3579 55.627 15.2642 56.5957 15.2642H58.5527ZM64.1074 4.98682H67.4824V20.0806L67.1426 22.9868H64.1074V4.98682ZM75.5098 16.5181V16.7642C75.5098 17.7095 75.4082 18.5767 75.2051 19.3657C75.0098 20.1548 74.7051 20.8384 74.291 21.4165C73.877 21.9868 73.3613 22.4321 72.7441 22.7524C72.1348 23.0649 71.416 23.2212 70.5879 23.2212C69.8145 23.2212 69.1426 23.0649 68.5723 22.7524C68.0098 22.4399 67.5371 21.9985 67.1543 21.4282C66.7715 20.8579 66.4629 20.1899 66.2285 19.4243C65.9941 18.6587 65.8184 17.8228 65.7012 16.9165V16.3774C65.8184 15.4712 65.9941 14.6353 66.2285 13.8696C66.4629 13.104 66.7715 12.436 67.1543 11.8657C67.5371 11.2954 68.0098 10.854 68.5723 10.5415C69.1348 10.229 69.7988 10.0728 70.5645 10.0728C71.4004 10.0728 72.127 10.2329 72.7441 10.5532C73.3691 10.8657 73.8848 11.311 74.291 11.8892C74.7051 12.4595 75.0098 13.1392 75.2051 13.9282C75.4082 14.7095 75.5098 15.5728 75.5098 16.5181ZM72.1348 16.7642V16.5181C72.1348 16.0024 72.0957 15.5181 72.0176 15.0649C71.9473 14.604 71.8223 14.2017 71.6426 13.8579C71.4629 13.5063 71.2168 13.229 70.9043 13.0259C70.5996 12.8228 70.2051 12.7212 69.7207 12.7212C69.2598 12.7212 68.8691 12.7993 68.5488 12.9556C68.2285 13.1118 67.9629 13.3306 67.752 13.6118C67.5488 13.8931 67.3965 14.229 67.2949 14.6196C67.1934 15.0024 67.1309 15.4243 67.1074 15.8853V17.4204C67.1309 18.0376 67.2324 18.5845 67.4121 19.061C67.5996 19.5298 67.8809 19.9009 68.2559 20.1743C68.6387 20.4399 69.1348 20.5728 69.7441 20.5728C70.2207 20.5728 70.6152 20.479 70.9277 20.2915C71.2402 20.104 71.4824 19.8384 71.6543 19.4946C71.834 19.1509 71.959 18.7485 72.0293 18.2876C72.0996 17.8188 72.1348 17.311 72.1348 16.7642ZM85.0957 20.2212V4.98682H88.4941V22.9868H85.4355L85.0957 20.2212ZM77.0801 16.7993V16.5532C77.0801 15.5845 77.1895 14.7056 77.4082 13.9165C77.627 13.1196 77.9473 12.436 78.3691 11.8657C78.791 11.2954 79.3105 10.854 79.9277 10.5415C80.5449 10.229 81.248 10.0728 82.0371 10.0728C82.7793 10.0728 83.4277 10.229 83.9824 10.5415C84.5449 10.854 85.0215 11.2993 85.4121 11.8774C85.8105 12.4478 86.1309 13.1235 86.373 13.9048C86.6152 14.6782 86.791 15.5259 86.9004 16.4478V16.9868C86.791 17.8696 86.6152 18.6899 86.373 19.4478C86.1309 20.2056 85.8105 20.8696 85.4121 21.4399C85.0215 22.0024 84.5449 22.4399 83.9824 22.7524C83.4199 23.0649 82.7637 23.2212 82.0137 23.2212C81.2246 23.2212 80.5215 23.061 79.9043 22.7407C79.2949 22.4204 78.7793 21.9712 78.3574 21.3931C77.9434 20.8149 77.627 20.1353 77.4082 19.354C77.1895 18.5728 77.0801 17.7212 77.0801 16.7993ZM80.4551 16.5532V16.7993C80.4551 17.3228 80.4941 17.811 80.5723 18.2642C80.6582 18.7173 80.7949 19.1196 80.9824 19.4712C81.1777 19.8149 81.4277 20.0845 81.7324 20.2798C82.0449 20.4673 82.4238 20.561 82.8691 20.561C83.4473 20.561 83.9238 20.4321 84.2988 20.1743C84.6738 19.9087 84.959 19.5454 85.1543 19.0845C85.3574 18.6235 85.4746 18.0923 85.5059 17.4907V15.9556C85.4824 15.4634 85.4121 15.022 85.2949 14.6313C85.1855 14.2329 85.0215 13.8931 84.8027 13.6118C84.5918 13.3306 84.3262 13.1118 84.0059 12.9556C83.6934 12.7993 83.3223 12.7212 82.8926 12.7212C82.4551 12.7212 82.0801 12.8228 81.7676 13.0259C81.4551 13.2212 81.2012 13.4907 81.0059 13.8345C80.8184 14.1782 80.6777 14.5845 80.584 15.0532C80.498 15.5142 80.4551 16.0142 80.4551 16.5532ZM97.9746 20.1274V14.479C97.9746 14.0728 97.9082 13.7251 97.7754 13.436C97.6426 13.1392 97.4355 12.9087 97.1543 12.7446C96.8809 12.5806 96.5254 12.4985 96.0879 12.4985C95.7129 12.4985 95.3887 12.5649 95.1152 12.6978C94.8418 12.8228 94.6309 13.0063 94.4824 13.2485C94.334 13.4829 94.2598 13.7603 94.2598 14.0806H90.8848C90.8848 13.5415 91.0098 13.0298 91.2598 12.5454C91.5098 12.061 91.873 11.6353 92.3496 11.2681C92.8262 10.8931 93.3926 10.6001 94.0488 10.3892C94.7129 10.1782 95.4551 10.0728 96.2754 10.0728C97.2598 10.0728 98.1348 10.2368 98.9004 10.5649C99.666 10.8931 100.268 11.3853 100.705 12.0415C101.15 12.6978 101.373 13.5181 101.373 14.5024V19.9282C101.373 20.6235 101.416 21.1938 101.502 21.6392C101.588 22.0767 101.713 22.4595 101.877 22.7876V22.9868H98.4668C98.3027 22.6431 98.1777 22.2134 98.0918 21.6978C98.0137 21.1743 97.9746 20.6509 97.9746 20.1274ZM98.4199 15.2642L98.4434 17.1743H96.5566C96.1113 17.1743 95.7246 17.2251 95.3965 17.3267C95.0684 17.4282 94.7988 17.5728 94.5879 17.7603C94.377 17.9399 94.2207 18.1509 94.1191 18.3931C94.0254 18.6353 93.9785 18.9009 93.9785 19.1899C93.9785 19.479 94.0449 19.7407 94.1777 19.9751C94.3105 20.2017 94.502 20.3813 94.752 20.5142C95.002 20.6392 95.2949 20.7017 95.6309 20.7017C96.1387 20.7017 96.5801 20.6001 96.9551 20.397C97.3301 20.1938 97.6191 19.9438 97.8223 19.647C98.0332 19.3501 98.1426 19.0688 98.1504 18.8032L99.041 20.2329C98.916 20.5532 98.7441 20.8853 98.5254 21.229C98.3145 21.5728 98.0449 21.897 97.7168 22.2017C97.3887 22.4985 96.9941 22.7446 96.5332 22.9399C96.0723 23.1274 95.5254 23.2212 94.8926 23.2212C94.0879 23.2212 93.3574 23.061 92.7012 22.7407C92.0527 22.4126 91.5371 21.9634 91.1543 21.3931C90.7793 20.8149 90.5918 20.1587 90.5918 19.4243C90.5918 18.7603 90.7168 18.1704 90.9668 17.6548C91.2168 17.1392 91.584 16.7056 92.0684 16.354C92.5605 15.9946 93.1738 15.7251 93.9082 15.5454C94.6426 15.3579 95.4941 15.2642 96.4629 15.2642H98.4199ZM107.35 13.0728V22.9868H103.975V10.3071H107.15L107.35 13.0728ZM111.17 10.2251L111.111 13.354C110.947 13.3306 110.748 13.311 110.514 13.2954C110.287 13.272 110.08 13.2603 109.893 13.2603C109.416 13.2603 109.002 13.3228 108.65 13.4478C108.307 13.5649 108.018 13.7407 107.783 13.9751C107.557 14.2095 107.385 14.4946 107.268 14.8306C107.158 15.1665 107.096 15.5493 107.08 15.979L106.4 15.7681C106.4 14.9478 106.482 14.1938 106.646 13.5063C106.811 12.811 107.049 12.2056 107.361 11.6899C107.682 11.1743 108.072 10.7759 108.533 10.4946C108.994 10.2134 109.521 10.0728 110.115 10.0728C110.303 10.0728 110.494 10.0884 110.689 10.1196C110.885 10.1431 111.045 10.1782 111.17 10.2251ZM120.264 19.9517V10.3071H123.639V22.9868H120.463L120.264 19.9517ZM120.639 17.3501L121.635 17.3267C121.635 18.1704 121.537 18.9556 121.342 19.6821C121.146 20.4009 120.854 21.0259 120.463 21.5571C120.072 22.0806 119.58 22.4907 118.986 22.7876C118.393 23.0767 117.693 23.2212 116.889 23.2212C116.271 23.2212 115.701 23.1353 115.178 22.9634C114.662 22.7837 114.217 22.5063 113.842 22.1313C113.475 21.7485 113.186 21.2603 112.975 20.6665C112.771 20.0649 112.67 19.3423 112.67 18.4985V10.3071H116.045V18.522C116.045 18.897 116.088 19.2134 116.174 19.4712C116.268 19.729 116.396 19.9399 116.561 20.104C116.725 20.2681 116.916 20.3853 117.135 20.4556C117.361 20.5259 117.611 20.561 117.885 20.561C118.58 20.561 119.127 20.4204 119.525 20.1392C119.932 19.8579 120.217 19.4751 120.381 18.9907C120.553 18.4985 120.639 17.9517 120.639 17.3501ZM116.561 8.59619L118.857 4.98682H122.525L119.303 8.59619H116.561ZM134.244 10.3071H137.303V22.5649C137.303 23.7212 137.045 24.7017 136.529 25.5063C136.021 26.3188 135.311 26.9321 134.396 27.3462C133.482 27.7681 132.42 27.979 131.209 27.979C130.678 27.979 130.115 27.9087 129.521 27.7681C128.936 27.6274 128.373 27.4087 127.834 27.1118C127.303 26.8149 126.857 26.4399 126.498 25.9868L127.986 23.9946C128.377 24.4478 128.83 24.7993 129.346 25.0493C129.861 25.3071 130.432 25.436 131.057 25.436C131.666 25.436 132.182 25.3228 132.604 25.0962C133.025 24.8774 133.35 24.5532 133.576 24.1235C133.803 23.7017 133.916 23.1899 133.916 22.5884V13.2368L134.244 10.3071ZM125.713 16.7993V16.5532C125.713 15.5845 125.83 14.7056 126.064 13.9165C126.307 13.1196 126.646 12.436 127.084 11.8657C127.529 11.2954 128.068 10.854 128.701 10.5415C129.334 10.229 130.049 10.0728 130.846 10.0728C131.689 10.0728 132.396 10.229 132.967 10.5415C133.537 10.854 134.006 11.2993 134.373 11.8774C134.74 12.4478 135.025 13.1235 135.229 13.9048C135.439 14.6782 135.604 15.5259 135.721 16.4478V16.9868C135.604 17.8696 135.428 18.6899 135.193 19.4478C134.959 20.2056 134.65 20.8696 134.268 21.4399C133.885 22.0024 133.408 22.4399 132.838 22.7524C132.275 23.0649 131.604 23.2212 130.822 23.2212C130.041 23.2212 129.334 23.061 128.701 22.7407C128.076 22.4204 127.541 21.9712 127.096 21.3931C126.65 20.8149 126.307 20.1353 126.064 19.354C125.83 18.5728 125.713 17.7212 125.713 16.7993ZM129.088 16.5532V16.7993C129.088 17.3228 129.139 17.811 129.24 18.2642C129.342 18.7173 129.498 19.1196 129.709 19.4712C129.928 19.8149 130.197 20.0845 130.518 20.2798C130.846 20.4673 131.232 20.561 131.678 20.561C132.295 20.561 132.799 20.4321 133.189 20.1743C133.58 19.9087 133.873 19.5454 134.068 19.0845C134.264 18.6235 134.377 18.0923 134.408 17.4907V15.9556C134.393 15.4634 134.326 15.022 134.209 14.6313C134.092 14.2329 133.928 13.8931 133.717 13.6118C133.506 13.3306 133.232 13.1118 132.896 12.9556C132.561 12.7993 132.162 12.7212 131.701 12.7212C131.256 12.7212 130.869 12.8228 130.541 13.0259C130.221 13.2212 129.951 13.4907 129.732 13.8345C129.521 14.1782 129.361 14.5845 129.252 15.0532C129.143 15.5142 129.088 16.0142 129.088 16.5532ZM146.771 20.1274V14.479C146.771 14.0728 146.705 13.7251 146.572 13.436C146.439 13.1392 146.232 12.9087 145.951 12.7446C145.678 12.5806 145.322 12.4985 144.885 12.4985C144.51 12.4985 144.186 12.5649 143.912 12.6978C143.639 12.8228 143.428 13.0063 143.279 13.2485C143.131 13.4829 143.057 13.7603 143.057 14.0806H139.682C139.682 13.5415 139.807 13.0298 140.057 12.5454C140.307 12.061 140.67 11.6353 141.146 11.2681C141.623 10.8931 142.189 10.6001 142.846 10.3892C143.51 10.1782 144.252 10.0728 145.072 10.0728C146.057 10.0728 146.932 10.2368 147.697 10.5649C148.463 10.8931 149.064 11.3853 149.502 12.0415C149.947 12.6978 150.17 13.5181 150.17 14.5024V19.9282C150.17 20.6235 150.213 21.1938 150.299 21.6392C150.385 22.0767 150.51 22.4595 150.674 22.7876V22.9868H147.264C147.1 22.6431 146.975 22.2134 146.889 21.6978C146.811 21.1743 146.771 20.6509 146.771 20.1274ZM147.217 15.2642L147.24 17.1743H145.354C144.908 17.1743 144.521 17.2251 144.193 17.3267C143.865 17.4282 143.596 17.5728 143.385 17.7603C143.174 17.9399 143.018 18.1509 142.916 18.3931C142.822 18.6353 142.775 18.9009 142.775 19.1899C142.775 19.479 142.842 19.7407 142.975 19.9751C143.107 20.2017 143.299 20.3813 143.549 20.5142C143.799 20.6392 144.092 20.7017 144.428 20.7017C144.936 20.7017 145.377 20.6001 145.752 20.397C146.127 20.1938 146.416 19.9438 146.619 19.647C146.83 19.3501 146.939 19.0688 146.947 18.8032L147.838 20.2329C147.713 20.5532 147.541 20.8853 147.322 21.229C147.111 21.5728 146.842 21.897 146.514 22.2017C146.186 22.4985 145.791 22.7446 145.33 22.9399C144.869 23.1274 144.322 23.2212 143.689 23.2212C142.885 23.2212 142.154 23.061 141.498 22.7407C140.85 22.4126 140.334 21.9634 139.951 21.3931C139.576 20.8149 139.389 20.1587 139.389 19.4243C139.389 18.7603 139.514 18.1704 139.764 17.6548C140.014 17.1392 140.381 16.7056 140.865 16.354C141.357 15.9946 141.971 15.7251 142.705 15.5454C143.439 15.3579 144.291 15.2642 145.26 15.2642H147.217ZM143.455 8.59619L145.752 4.98682H149.42L146.197 8.59619H143.455ZM159.627 19.4829C159.627 19.2407 159.557 19.022 159.416 18.8267C159.275 18.6313 159.014 18.4517 158.631 18.2876C158.256 18.1157 157.713 17.9595 157.002 17.8188C156.361 17.6782 155.764 17.5024 155.209 17.2915C154.662 17.0728 154.186 16.811 153.779 16.5063C153.381 16.2017 153.068 15.8423 152.842 15.4282C152.615 15.0063 152.502 14.5259 152.502 13.9868C152.502 13.4556 152.615 12.9556 152.842 12.4868C153.076 12.0181 153.408 11.604 153.838 11.2446C154.275 10.8774 154.807 10.5923 155.432 10.3892C156.064 10.1782 156.775 10.0728 157.564 10.0728C158.666 10.0728 159.611 10.2485 160.4 10.6001C161.197 10.9517 161.807 11.436 162.229 12.0532C162.658 12.6626 162.873 13.3579 162.873 14.1392H159.498C159.498 13.811 159.428 13.5181 159.287 13.2603C159.154 12.9946 158.943 12.7876 158.654 12.6392C158.373 12.4829 158.006 12.4048 157.553 12.4048C157.178 12.4048 156.854 12.4712 156.58 12.604C156.307 12.729 156.096 12.9009 155.947 13.1196C155.807 13.3306 155.736 13.5649 155.736 13.8228C155.736 14.0181 155.775 14.1938 155.854 14.3501C155.939 14.4985 156.076 14.6353 156.264 14.7603C156.451 14.8853 156.693 15.0024 156.99 15.1118C157.295 15.2134 157.67 15.3071 158.115 15.3931C159.029 15.5806 159.846 15.8267 160.564 16.1313C161.283 16.4282 161.854 16.8345 162.275 17.3501C162.697 17.8579 162.908 18.5259 162.908 19.354C162.908 19.9165 162.783 20.4321 162.533 20.9009C162.283 21.3696 161.924 21.7798 161.455 22.1313C160.986 22.4751 160.424 22.7446 159.768 22.9399C159.119 23.1274 158.389 23.2212 157.576 23.2212C156.396 23.2212 155.396 23.0103 154.576 22.5884C153.764 22.1665 153.146 21.6313 152.725 20.9829C152.311 20.3267 152.104 19.6548 152.104 18.9673H155.303C155.318 19.4282 155.436 19.7993 155.654 20.0806C155.881 20.3618 156.166 20.5649 156.51 20.6899C156.861 20.8149 157.24 20.8774 157.646 20.8774C158.084 20.8774 158.447 20.8188 158.736 20.7017C159.025 20.5767 159.244 20.4126 159.393 20.2095C159.549 19.9985 159.627 19.7563 159.627 19.4829Z" fill="white"/>
<path fill-rule="evenodd" clip-rule="evenodd" d="M21.6517 10.8955C20.2412 10.8955 19.0412 9.99407 18.5965 8.73586H14.0928V14.135H18.5965C19.0412 12.8768 20.2412 11.9754 21.6517 11.9754C23.4408 11.9754 24.8912 13.4257 24.8912 15.2149C24.8912 17.004 23.4408 18.4544 21.6517 18.4544C20.2412 18.4544 19.0412 17.5529 18.5965 16.2947H14.0928V21.6939H18.5965C19.0412 20.4357 20.2412 19.5342 21.6517 19.5342C23.4408 19.5342 24.8912 20.9846 24.8912 22.7737C24.8912 24.5629 23.4408 26.0133 21.6517 26.0133C20.2412 26.0133 19.0412 25.1118 18.5965 23.8536H13.013C12.4166 23.8536 11.9331 23.3701 11.9331 22.7737V16.2947H9.58913C9.14441 17.5529 7.94445 18.4544 6.53395 18.4544C4.74481 18.4544 3.29443 17.004 3.29443 15.2149C3.29443 13.4257 4.74481 11.9754 6.53395 11.9754C7.94445 11.9754 9.14441 12.8768 9.58913 14.135H11.9331V7.65602C11.9331 7.05964 12.4166 6.57618 13.013 6.57618H18.5965C19.0412 5.31796 20.2412 4.4165 21.6517 4.4165C23.4408 4.4165 24.8912 5.86688 24.8912 7.65602C24.8912 9.44515 23.4408 10.8955 21.6517 10.8955ZM20.5718 7.65602C20.5718 7.05964 21.0553 6.57618 21.6517 6.57618C22.2481 6.57618 22.7315 7.05964 22.7315 7.65602C22.7315 8.2524 22.2481 8.73586 21.6517 8.73586C21.0553 8.73586 20.5718 8.2524 20.5718 7.65602ZM7.61379 15.2149C7.61379 14.6185 7.13033 14.135 6.53395 14.135C5.93757 14.135 5.45411 14.6185 5.45411 15.2149C5.45411 15.8113 5.93757 16.2947 6.53395 16.2947C7.13033 16.2947 7.61379 15.8113 7.61379 15.2149ZM20.5718 15.2149C20.5718 15.8113 21.0553 16.2947 21.6517 16.2947C22.2481 16.2947 22.7315 15.8113 22.7315 15.2149C22.7315 14.6185 22.2481 14.135 21.6517 14.135C21.0553 14.135 20.5718 14.6185 20.5718 15.2149ZM21.6517 23.8536C21.0553 23.8536 20.5718 23.3701 20.5718 22.7737C20.5718 22.1774 21.0553 21.6939 21.6517 21.6939C22.2481 21.6939 22.7315 22.1774 22.7315 22.7737C22.7315 23.3701 22.2481 23.8536 21.6517 23.8536Z" fill="white"/>
<path d="M7.61379 15.2149C7.61379 14.6185 7.13033 14.135 6.53395 14.135C5.93757 14.135 5.45411 14.6185 5.45411 15.2149C5.45411 15.8113 5.93757 16.2947 6.53395 16.2947C7.13033 16.2947 7.61379 15.8113 7.61379 15.2149Z" fill="white"/>
<path d="M21.6517 16.2947C21.0553 16.2947 20.5718 15.8113 20.5718 15.2149C20.5718 14.6185 21.0553 14.135 21.6517 14.135C22.2481 14.135 22.7315 14.6185 22.7315 15.2149C22.7315 15.8113 22.2481 16.2947 21.6517 16.2947Z" fill="white"/>
<path d="M21.6517 6.57618C21.0553 6.57618 20.5718 7.05964 20.5718 7.65602C20.5718 8.2524 21.0553 8.73586 21.6517 8.73586C22.2481 8.73586 22.7315 8.2524 22.7315 7.65602C22.7315 7.05964 22.2481 6.57618 21.6517 6.57618Z" fill="white"/>
<path d="M20.5718 22.7737C20.5718 23.3701 21.0553 23.8536 21.6517 23.8536C22.2481 23.8536 22.7315 23.3701 22.7315 22.7737C22.7315 22.1774 22.2481 21.6939 21.6517 21.6939C21.0553 21.6939 20.5718 22.1774 20.5718 22.7737Z" fill="white"/>
</svg>
