<svg width="181" height="32" viewBox="0 0 181 32" fill="none" xmlns="http://www.w3.org/2000/svg">
<path d="M48.209 9.85547L43.5684 24H39.8301L46.1699 6.9375H48.5488L48.209 9.85547ZM52.0645 24L47.4121 9.85547L47.0371 6.9375H49.4395L55.8145 24H52.0645ZM51.8535 17.6484V20.4023H42.8418V17.6484H51.8535ZM46.2285 5.97656L48.5254 2.36719H52.1934L48.9707 5.97656H46.2285ZM63.1855 11.3203V13.7109H55.8027V11.3203H63.1855ZM57.6309 8.19141H61.0059V20.1797C61.0059 20.5469 61.0527 20.8281 61.1465 21.0234C61.248 21.2188 61.3965 21.3555 61.5918 21.4336C61.7871 21.5039 62.0332 21.5391 62.3301 21.5391C62.541 21.5391 62.7285 21.5312 62.8926 21.5156C63.0645 21.4922 63.209 21.4688 63.3262 21.4453L63.3379 23.9297C63.0488 24.0234 62.7363 24.0977 62.4004 24.1523C62.0645 24.207 61.6934 24.2344 61.2871 24.2344C60.5449 24.2344 59.8965 24.1133 59.3418 23.8711C58.7949 23.6211 58.373 23.2227 58.0762 22.6758C57.7793 22.1289 57.6309 21.4102 57.6309 20.5195V8.19141ZM68.6699 11.3203V24H65.2832V11.3203H68.6699ZM65.0723 8.01562C65.0723 7.52344 65.2441 7.11719 65.5879 6.79688C65.9316 6.47656 66.3926 6.31641 66.9707 6.31641C67.541 6.31641 67.998 6.47656 68.3418 6.79688C68.6934 7.11719 68.8691 7.52344 68.8691 8.01562C68.8691 8.50781 68.6934 8.91406 68.3418 9.23438C67.998 9.55469 67.541 9.71484 66.9707 9.71484C66.3926 9.71484 65.9316 9.55469 65.5879 9.23438C65.2441 8.91406 65.0723 8.50781 65.0723 8.01562ZM79.4863 11.3203H82.5449V23.5781C82.5449 24.7344 82.2871 25.7148 81.7715 26.5195C81.2637 27.332 80.5527 27.9453 79.6387 28.3594C78.7246 28.7812 77.6621 28.9922 76.4512 28.9922C75.9199 28.9922 75.3574 28.9219 74.7637 28.7812C74.1777 28.6406 73.6152 28.4219 73.0762 28.125C72.5449 27.8281 72.0996 27.4531 71.7402 27L73.2285 25.0078C73.6191 25.4609 74.0723 25.8125 74.5879 26.0625C75.1035 26.3203 75.6738 26.4492 76.2988 26.4492C76.9082 26.4492 77.4238 26.3359 77.8457 26.1094C78.2676 25.8906 78.5918 25.5664 78.8184 25.1367C79.0449 24.7148 79.1582 24.2031 79.1582 23.6016V14.25L79.4863 11.3203ZM70.9551 17.8125V17.5664C70.9551 16.5977 71.0723 15.7188 71.3066 14.9297C71.5488 14.1328 71.8887 13.4492 72.3262 12.8789C72.7715 12.3086 73.3105 11.8672 73.9434 11.5547C74.5762 11.2422 75.291 11.0859 76.0879 11.0859C76.9316 11.0859 77.6387 11.2422 78.209 11.5547C78.7793 11.8672 79.248 12.3125 79.6152 12.8906C79.9824 13.4609 80.2676 14.1367 80.4707 14.918C80.6816 15.6914 80.8457 16.5391 80.9629 17.4609V18C80.8457 18.8828 80.6699 19.7031 80.4355 20.4609C80.2012 21.2188 79.8926 21.8828 79.5098 22.4531C79.127 23.0156 78.6504 23.4531 78.0801 23.7656C77.5176 24.0781 76.8457 24.2344 76.0645 24.2344C75.2832 24.2344 74.5762 24.0742 73.9434 23.7539C73.3184 23.4336 72.7832 22.9844 72.3379 22.4062C71.8926 21.8281 71.5488 21.1484 71.3066 20.3672C71.0723 19.5859 70.9551 18.7344 70.9551 17.8125ZM74.3301 17.5664V17.8125C74.3301 18.3359 74.3809 18.8242 74.4824 19.2773C74.584 19.7305 74.7402 20.1328 74.9512 20.4844C75.1699 20.8281 75.4395 21.0977 75.7598 21.293C76.0879 21.4805 76.4746 21.5742 76.9199 21.5742C77.5371 21.5742 78.041 21.4453 78.4316 21.1875C78.8223 20.9219 79.1152 20.5586 79.3105 20.0977C79.5059 19.6367 79.6191 19.1055 79.6504 18.5039V16.9688C79.6348 16.4766 79.5684 16.0352 79.4512 15.6445C79.334 15.2461 79.1699 14.9062 78.959 14.625C78.748 14.3438 78.4746 14.125 78.1387 13.9688C77.8027 13.8125 77.4043 13.7344 76.9434 13.7344C76.498 13.7344 76.1113 13.8359 75.7832 14.0391C75.4629 14.2344 75.1934 14.5039 74.9746 14.8477C74.7637 15.1914 74.6035 15.5977 74.4941 16.0664C74.3848 16.5273 74.3301 17.0273 74.3301 17.5664ZM92.0137 21.1406V15.4922C92.0137 15.0859 91.9473 14.7383 91.8145 14.4492C91.6816 14.1523 91.4746 13.9219 91.1934 13.7578C90.9199 13.5938 90.5645 13.5117 90.127 13.5117C89.752 13.5117 89.4277 13.5781 89.1543 13.7109C88.8809 13.8359 88.6699 14.0195 88.5215 14.2617C88.373 14.4961 88.2988 14.7734 88.2988 15.0938H84.9238C84.9238 14.5547 85.0488 14.043 85.2988 13.5586C85.5488 13.0742 85.9121 12.6484 86.3887 12.2812C86.8652 11.9062 87.4316 11.6133 88.0879 11.4023C88.752 11.1914 89.4941 11.0859 90.3145 11.0859C91.2988 11.0859 92.1738 11.25 92.9395 11.5781C93.7051 11.9062 94.3066 12.3984 94.7441 13.0547C95.1895 13.7109 95.4121 14.5312 95.4121 15.5156V20.9414C95.4121 21.6367 95.4551 22.207 95.541 22.6523C95.627 23.0898 95.752 23.4727 95.916 23.8008V24H92.5059C92.3418 23.6562 92.2168 23.2266 92.1309 22.7109C92.0527 22.1875 92.0137 21.6641 92.0137 21.1406ZM92.459 16.2773L92.4824 18.1875H90.5957C90.1504 18.1875 89.7637 18.2383 89.4355 18.3398C89.1074 18.4414 88.8379 18.5859 88.627 18.7734C88.416 18.9531 88.2598 19.1641 88.1582 19.4062C88.0645 19.6484 88.0176 19.9141 88.0176 20.2031C88.0176 20.4922 88.084 20.7539 88.2168 20.9883C88.3496 21.2148 88.541 21.3945 88.791 21.5273C89.041 21.6523 89.334 21.7148 89.6699 21.7148C90.1777 21.7148 90.6191 21.6133 90.9941 21.4102C91.3691 21.207 91.6582 20.957 91.8613 20.6602C92.0723 20.3633 92.1816 20.082 92.1895 19.8164L93.0801 21.2461C92.9551 21.5664 92.7832 21.8984 92.5645 22.2422C92.3535 22.5859 92.084 22.9102 91.7559 23.2148C91.4277 23.5117 91.0332 23.7578 90.5723 23.9531C90.1113 24.1406 89.5645 24.2344 88.9316 24.2344C88.127 24.2344 87.3965 24.0742 86.7402 23.7539C86.0918 23.4258 85.5762 22.9766 85.1934 22.4062C84.8184 21.8281 84.6309 21.1719 84.6309 20.4375C84.6309 19.7734 84.7559 19.1836 85.0059 18.668C85.2559 18.1523 85.623 17.7188 86.1074 17.3672C86.5996 17.0078 87.2129 16.7383 87.9473 16.5586C88.6816 16.3711 89.5332 16.2773 90.502 16.2773H92.459ZM108.104 21.3633V24H98.4707V21.3633H108.104ZM107.916 13.2656L99.8301 24H97.5684V21.9961L105.619 11.3203H107.916V13.2656ZM106.721 11.3203V13.9688H97.7559V11.3203H106.721ZM109.498 17.7891V17.543C109.498 16.6133 109.631 15.7578 109.896 14.9766C110.162 14.1875 110.549 13.5039 111.057 12.9258C111.564 12.3477 112.189 11.8984 112.932 11.5781C113.674 11.25 114.525 11.0859 115.486 11.0859C116.447 11.0859 117.303 11.25 118.053 11.5781C118.803 11.8984 119.432 12.3477 119.939 12.9258C120.455 13.5039 120.846 14.1875 121.111 14.9766C121.377 15.7578 121.51 16.6133 121.51 17.543V17.7891C121.51 18.7109 121.377 19.5664 121.111 20.3555C120.846 21.1367 120.455 21.8203 119.939 22.4062C119.432 22.9844 118.807 23.4336 118.064 23.7539C117.322 24.0742 116.471 24.2344 115.51 24.2344C114.549 24.2344 113.693 24.0742 112.943 23.7539C112.201 23.4336 111.572 22.9844 111.057 22.4062C110.549 21.8203 110.162 21.1367 109.896 20.3555C109.631 19.5664 109.498 18.7109 109.498 17.7891ZM112.873 17.543V17.7891C112.873 18.3203 112.92 18.8164 113.014 19.2773C113.107 19.7383 113.256 20.1445 113.459 20.4961C113.67 20.8398 113.943 21.1094 114.279 21.3047C114.615 21.5 115.025 21.5977 115.51 21.5977C115.979 21.5977 116.381 21.5 116.717 21.3047C117.053 21.1094 117.322 20.8398 117.525 20.4961C117.729 20.1445 117.877 19.7383 117.971 19.2773C118.072 18.8164 118.123 18.3203 118.123 17.7891V17.543C118.123 17.0273 118.072 16.543 117.971 16.0898C117.877 15.6289 117.725 15.2227 117.514 14.8711C117.311 14.5117 117.041 14.2305 116.705 14.0273C116.369 13.8242 115.963 13.7227 115.486 13.7227C115.01 13.7227 114.604 13.8242 114.268 14.0273C113.939 14.2305 113.67 14.5117 113.459 14.8711C113.256 15.2227 113.107 15.6289 113.014 16.0898C112.92 16.543 112.873 17.0273 112.873 17.543ZM127.146 6V24H123.76V6H127.146ZM136.779 21.1406V15.4922C136.779 15.0859 136.713 14.7383 136.58 14.4492C136.447 14.1523 136.24 13.9219 135.959 13.7578C135.686 13.5938 135.33 13.5117 134.893 13.5117C134.518 13.5117 134.193 13.5781 133.92 13.7109C133.646 13.8359 133.436 14.0195 133.287 14.2617C133.139 14.4961 133.064 14.7734 133.064 15.0938H129.689C129.689 14.5547 129.814 14.043 130.064 13.5586C130.314 13.0742 130.678 12.6484 131.154 12.2812C131.631 11.9062 132.197 11.6133 132.854 11.4023C133.518 11.1914 134.26 11.0859 135.08 11.0859C136.064 11.0859 136.939 11.25 137.705 11.5781C138.471 11.9062 139.072 12.3984 139.51 13.0547C139.955 13.7109 140.178 14.5312 140.178 15.5156V20.9414C140.178 21.6367 140.221 22.207 140.307 22.6523C140.393 23.0898 140.518 23.4727 140.682 23.8008V24H137.271C137.107 23.6562 136.982 23.2266 136.896 22.7109C136.818 22.1875 136.779 21.6641 136.779 21.1406ZM137.225 16.2773L137.248 18.1875H135.361C134.916 18.1875 134.529 18.2383 134.201 18.3398C133.873 18.4414 133.604 18.5859 133.393 18.7734C133.182 18.9531 133.025 19.1641 132.924 19.4062C132.83 19.6484 132.783 19.9141 132.783 20.2031C132.783 20.4922 132.85 20.7539 132.982 20.9883C133.115 21.2148 133.307 21.3945 133.557 21.5273C133.807 21.6523 134.1 21.7148 134.436 21.7148C134.943 21.7148 135.385 21.6133 135.76 21.4102C136.135 21.207 136.424 20.957 136.627 20.6602C136.838 20.3633 136.947 20.082 136.955 19.8164L137.846 21.2461C137.721 21.5664 137.549 21.8984 137.33 22.2422C137.119 22.5859 136.85 22.9102 136.521 23.2148C136.193 23.5117 135.799 23.7578 135.338 23.9531C134.877 24.1406 134.33 24.2344 133.697 24.2344C132.893 24.2344 132.162 24.0742 131.506 23.7539C130.857 23.4258 130.342 22.9766 129.959 22.4062C129.584 21.8281 129.396 21.1719 129.396 20.4375C129.396 19.7734 129.521 19.1836 129.771 18.668C130.021 18.1523 130.389 17.7188 130.873 17.3672C131.365 17.0078 131.979 16.7383 132.713 16.5586C133.447 16.3711 134.299 16.2773 135.268 16.2773H137.225ZM133.463 9.60938L135.76 6H139.428L136.205 9.60938H133.463ZM149.635 20.4961C149.635 20.2539 149.564 20.0352 149.424 19.8398C149.283 19.6445 149.021 19.4648 148.639 19.3008C148.264 19.1289 147.721 18.9727 147.01 18.832C146.369 18.6914 145.771 18.5156 145.217 18.3047C144.67 18.0859 144.193 17.8242 143.787 17.5195C143.389 17.2148 143.076 16.8555 142.85 16.4414C142.623 16.0195 142.51 15.5391 142.51 15C142.51 14.4688 142.623 13.9688 142.85 13.5C143.084 13.0312 143.416 12.6172 143.846 12.2578C144.283 11.8906 144.814 11.6055 145.439 11.4023C146.072 11.1914 146.783 11.0859 147.572 11.0859C148.674 11.0859 149.619 11.2617 150.408 11.6133C151.205 11.9648 151.814 12.4492 152.236 13.0664C152.666 13.6758 152.881 14.3711 152.881 15.1523H149.506C149.506 14.8242 149.436 14.5312 149.295 14.2734C149.162 14.0078 148.951 13.8008 148.662 13.6523C148.381 13.4961 148.014 13.418 147.561 13.418C147.186 13.418 146.861 13.4844 146.588 13.6172C146.314 13.7422 146.104 13.9141 145.955 14.1328C145.814 14.3438 145.744 14.5781 145.744 14.8359C145.744 15.0312 145.783 15.207 145.861 15.3633C145.947 15.5117 146.084 15.6484 146.271 15.7734C146.459 15.8984 146.701 16.0156 146.998 16.125C147.303 16.2266 147.678 16.3203 148.123 16.4062C149.037 16.5938 149.854 16.8398 150.572 17.1445C151.291 17.4414 151.861 17.8477 152.283 18.3633C152.705 18.8711 152.916 19.5391 152.916 20.3672C152.916 20.9297 152.791 21.4453 152.541 21.9141C152.291 22.3828 151.932 22.793 151.463 23.1445C150.994 23.4883 150.432 23.7578 149.775 23.9531C149.127 24.1406 148.396 24.2344 147.584 24.2344C146.404 24.2344 145.404 24.0234 144.584 23.6016C143.771 23.1797 143.154 22.6445 142.732 21.9961C142.318 21.3398 142.111 20.668 142.111 19.9805H145.311C145.326 20.4414 145.443 20.8125 145.662 21.0938C145.889 21.375 146.174 21.5781 146.518 21.7031C146.869 21.8281 147.248 21.8906 147.654 21.8906C148.092 21.8906 148.455 21.832 148.744 21.7148C149.033 21.5898 149.252 21.4258 149.4 21.2227C149.557 21.0117 149.635 20.7695 149.635 20.4961ZM154.568 17.7891V17.543C154.568 16.6133 154.701 15.7578 154.967 14.9766C155.232 14.1875 155.619 13.5039 156.127 12.9258C156.635 12.3477 157.26 11.8984 158.002 11.5781C158.744 11.25 159.596 11.0859 160.557 11.0859C161.518 11.0859 162.373 11.25 163.123 11.5781C163.873 11.8984 164.502 12.3477 165.01 12.9258C165.525 13.5039 165.916 14.1875 166.182 14.9766C166.447 15.7578 166.58 16.6133 166.58 17.543V17.7891C166.58 18.7109 166.447 19.5664 166.182 20.3555C165.916 21.1367 165.525 21.8203 165.01 22.4062C164.502 22.9844 163.877 23.4336 163.135 23.7539C162.393 24.0742 161.541 24.2344 160.58 24.2344C159.619 24.2344 158.764 24.0742 158.014 23.7539C157.271 23.4336 156.643 22.9844 156.127 22.4062C155.619 21.8203 155.232 21.1367 154.967 20.3555C154.701 19.5664 154.568 18.7109 154.568 17.7891ZM157.943 17.543V17.7891C157.943 18.3203 157.99 18.8164 158.084 19.2773C158.178 19.7383 158.326 20.1445 158.529 20.4961C158.74 20.8398 159.014 21.1094 159.35 21.3047C159.686 21.5 160.096 21.5977 160.58 21.5977C161.049 21.5977 161.451 21.5 161.787 21.3047C162.123 21.1094 162.393 20.8398 162.596 20.4961C162.799 20.1445 162.947 19.7383 163.041 19.2773C163.143 18.8164 163.193 18.3203 163.193 17.7891V17.543C163.193 17.0273 163.143 16.543 163.041 16.0898C162.947 15.6289 162.795 15.2227 162.584 14.8711C162.381 14.5117 162.111 14.2305 161.775 14.0273C161.439 13.8242 161.033 13.7227 160.557 13.7227C160.08 13.7227 159.674 13.8242 159.338 14.0273C159.01 14.2305 158.74 14.5117 158.529 14.8711C158.326 15.2227 158.178 15.6289 158.084 16.0898C157.99 16.543 157.943 17.0273 157.943 17.543ZM172.029 5.98828V24H168.654V5.98828H172.029ZM180.021 11.3203L174.514 17.6016L171.561 20.5898L170.33 18.1523L172.674 15.1758L175.967 11.3203H180.021ZM176.518 24L172.768 18.1406L175.1 16.1016L180.408 24H176.518Z" fill="white"/>
<path d="M16.8747 1.33325C16.1383 1.33325 15.5414 1.93021 15.5414 2.66659C15.5414 3.40296 16.1383 3.99992 16.8747 3.99992C22.7282 3.99992 27.6027 8.19092 28.6614 13.7359L26.3598 12.5851C25.7012 12.2558 24.9003 12.5228 24.571 13.1814C24.2417 13.8401 24.5086 14.641 25.1673 14.9703L29.6118 17.1925C30.0251 17.3991 30.5159 17.3771 30.909 17.1341C31.3021 16.8912 31.5414 16.462 31.5414 15.9999C31.5414 7.89973 24.9749 1.33325 16.8747 1.33325Z" fill="white"/>
<path fill-rule="evenodd" clip-rule="evenodd" d="M10.0171 3.2395C6.75598 3.2395 4.11233 5.88315 4.11233 9.14426C4.11233 12.4054 6.75598 15.049 10.0171 15.049C13.2782 15.049 15.9218 12.4054 15.9218 9.14426C15.9218 5.88315 13.2782 3.2395 10.0171 3.2395ZM6.77899 9.14426C6.77899 7.35591 8.22874 5.90617 10.0171 5.90617C11.8054 5.90617 13.2552 7.35591 13.2552 9.14426C13.2552 10.9326 11.8054 12.3824 10.0171 12.3824C8.22874 12.3824 6.77899 10.9326 6.77899 9.14426Z" fill="white"/>
<path fill-rule="evenodd" clip-rule="evenodd" d="M23.7313 16.953C20.4702 16.953 17.8265 19.5967 17.8265 22.8578C17.8265 26.1189 20.4702 28.7626 23.7313 28.7626C26.9924 28.7626 29.6361 26.1189 29.6361 22.8578C29.6361 19.5967 26.9924 16.953 23.7313 16.953ZM20.4932 22.8578C20.4932 21.0695 21.9429 19.6197 23.7313 19.6197C25.5196 19.6197 26.9694 21.0695 26.9694 22.8578C26.9694 24.6462 25.5196 26.0959 23.7313 26.0959C21.9429 26.0959 20.4932 24.6462 20.4932 22.8578Z" fill="white"/>
<path d="M2.84037 14.8657C3.23345 14.6228 3.72431 14.6007 4.13762 14.8073L8.58204 17.0295C9.24068 17.3589 9.50764 18.1598 9.17833 18.8184C8.84901 19.477 8.04811 19.744 7.38947 19.4147L5.08793 18.2639C6.14664 23.8089 11.0212 27.9999 16.8747 27.9999C17.6111 27.9999 18.208 28.5969 18.208 29.3333C18.208 30.0696 17.6111 30.6666 16.8747 30.6666C8.77451 30.6666 2.20801 24.1001 2.20801 15.9999C2.20801 15.5378 2.44728 15.1087 2.84037 14.8657Z" fill="white"/>
<path d="M10.0171 5.90617C8.22874 5.90617 6.77899 7.35591 6.77899 9.14426C6.77899 10.9326 8.22874 12.3824 10.0171 12.3824C11.8054 12.3824 13.2552 10.9326 13.2552 9.14426C13.2552 7.35591 11.8054 5.90617 10.0171 5.90617Z" fill="white"/>
<path d="M23.7313 19.6197C21.9429 19.6197 20.4932 21.0695 20.4932 22.8578C20.4932 24.6462 21.9429 26.0959 23.7313 26.0959C25.5196 26.0959 26.9694 24.6462 26.9694 22.8578C26.9694 21.0695 25.5196 19.6197 23.7313 19.6197Z" fill="white"/>
</svg>
